<svg width="213" height="66" viewBox="0 0 213 66" fill="none" xmlns="http://www.w3.org/2000/svg">
<path d="M197.813 0.902039H15.9159C15.3229 0.902039 14.7722 0.902039 14.1792 0.902039C13.7132 0.902039 13.2049 0.902039 12.7389 0.902039C11.6799 0.944893 10.6209 0.987747 9.60421 1.20202C8.54519 1.37344 7.57089 1.71627 6.63896 2.18767C5.70702 2.65907 4.85981 3.30188 4.09731 4.07326C3.33482 4.84463 2.74176 5.70172 2.23343 6.64452C1.7251 7.63016 1.42858 8.61581 1.25914 9.64432C1.0897 10.7157 1.00497 11.7442 0.962608 12.8155C0.962608 13.2869 0.962618 13.8012 0.920258 14.2726C0.920258 14.8297 0.920258 15.4296 0.920258 15.9868V50.0131C0.920258 50.613 0.920258 51.1701 0.920258 51.7272C0.920258 52.1986 0.920247 52.7129 0.962608 53.1843C1.00497 54.2556 1.04733 55.327 1.25914 56.3555C1.42858 57.4269 1.76746 58.4125 2.23343 59.3553C2.6994 60.2981 3.33482 61.1552 4.09731 61.9266C4.85981 62.6979 5.70702 63.2979 6.63896 63.8122C7.61325 64.3264 8.58755 64.6264 9.60421 64.7978C10.6632 64.9692 11.7222 65.0549 12.7389 65.0978C13.2049 65.0978 13.7132 65.0978 14.1792 65.0978C14.7722 65.0978 15.3229 65.0978 15.9159 65.0978H197.813C198.364 65.0978 198.957 65.0978 199.507 65.0978C199.973 65.0978 200.482 65.0978 200.948 65.0978C202.007 65.0549 203.066 65.0121 204.082 64.7978C205.141 64.6264 206.116 64.2836 207.09 63.8122C208.022 63.3408 208.869 62.6979 209.632 61.9266C210.394 61.198 210.987 60.2981 211.495 59.3553C211.961 58.4125 212.3 57.384 212.47 56.3555C212.682 55.2841 212.724 54.2556 212.766 53.1843C212.766 52.7129 212.766 52.1986 212.766 51.7272C212.766 51.1701 212.766 50.5702 212.766 50.0131V16.0296C212.766 15.4296 212.766 14.8725 212.766 14.3154C212.766 13.844 212.766 13.3298 212.766 12.8584C212.724 11.787 212.682 10.7157 212.47 9.68717C212.3 8.61581 211.961 7.63016 211.495 6.68737C211.029 5.74458 210.394 4.88749 209.632 4.11611C208.911 3.34473 208.022 2.74477 207.09 2.23052C206.116 1.75912 205.141 1.41629 204.082 1.24487C203.066 1.07346 202.007 0.987747 200.948 0.944893C200.482 0.944893 199.973 0.944893 199.507 0.944893C198.957 0.902039 198.406 0.902039 197.813 0.902039Z" fill="#B6B6B6"/>
<path d="M14.2215 63.812C13.7556 63.812 13.2896 63.812 12.8236 63.812C11.934 63.7692 10.9174 63.7263 9.90072 63.5549C8.92643 63.3835 8.07922 63.0835 7.31673 62.6978C6.51188 62.2693 5.74938 61.755 5.11397 61.0693C4.47856 60.4265 3.92787 59.698 3.50426 58.8409C3.08066 58.0267 2.82649 57.1696 2.65705 56.2268C2.44525 55.1555 2.4029 54.0841 2.4029 53.2699C2.4029 52.927 2.36052 51.8128 2.36052 51.8128V14.3153C2.36052 14.3153 2.36053 13.2011 2.4029 12.9011C2.4029 12.0869 2.48761 10.9727 2.65705 9.94417C2.82649 8.95852 3.12302 8.10143 3.50426 7.2872C3.92787 6.47297 4.43619 5.70159 5.11397 5.05878C5.74938 4.41596 6.51188 3.85886 7.31673 3.43031C8.12158 3.00177 8.96879 2.74464 9.90072 2.57323C10.9597 2.40181 12.0188 2.3161 12.8236 2.3161H14.2215H199.55H200.99C201.795 2.3161 202.854 2.40181 203.913 2.57323C204.845 2.74464 205.692 3.04462 206.539 3.43031C207.344 3.85886 208.064 4.37311 208.742 5.05878C209.377 5.70159 209.928 6.43011 210.352 7.2872C210.775 8.10143 211.029 8.95852 211.199 9.90131C211.368 10.887 211.453 11.9155 211.453 12.9011C211.453 13.3297 211.453 13.8439 211.453 14.3153C211.453 14.9153 211.453 15.4724 211.453 16.0295V50.0558C211.453 50.6129 211.453 51.2129 211.453 51.77C211.453 52.2842 211.453 52.7556 211.453 53.227C211.411 54.1698 211.368 55.1983 211.199 56.184C211.029 57.1696 210.775 58.0267 210.352 58.8409C209.928 59.6552 209.377 60.4265 208.742 61.0265C208.107 61.6693 207.344 62.2264 206.539 62.655C205.734 63.0835 204.887 63.3406 203.913 63.512C202.896 63.6835 201.88 63.7263 200.99 63.7692C200.524 63.7692 200.058 63.7692 199.592 63.7692H197.898L14.2215 63.812Z" fill="black"/>
<path d="M73.129 15.1504C73.129 15.9763 72.9701 16.6667 72.6525 17.2217C72.3382 17.7734 71.8818 18.1897 71.2833 18.4705C70.6848 18.748 69.9643 18.8868 69.1217 18.8868H67.0454V11.5544H69.3474C70.1164 11.5544 70.7835 11.6915 71.3485 11.9657C71.9136 12.2365 72.3516 12.6394 72.6625 13.1744C72.9735 13.706 73.129 14.3647 73.129 15.1504ZM71.514 15.1905C71.514 14.6489 71.4338 14.2042 71.2733 13.8565C71.1162 13.5054 70.8821 13.2463 70.5712 13.0791C70.2636 12.9119 69.8824 12.8283 69.4277 12.8283H68.6002V17.6029H69.2672C70.0262 17.6029 70.5896 17.4006 70.9573 16.996C71.3285 16.5915 71.514 15.9896 71.514 15.1905Z" fill="white"/>
<path d="M76.1863 13.2797V18.8868H74.6566V13.2797H76.1863ZM75.424 11.083C75.6513 11.083 75.8469 11.1365 76.0107 11.2435C76.1746 11.3471 76.2565 11.5427 76.2565 11.8303C76.2565 12.1145 76.1746 12.3118 76.0107 12.4221C75.8469 12.5291 75.6513 12.5826 75.424 12.5826C75.1933 12.5826 74.996 12.5291 74.8322 12.4221C74.6717 12.3118 74.5914 12.1145 74.5914 11.8303C74.5914 11.5427 74.6717 11.3471 74.8322 11.2435C74.996 11.1365 75.1933 11.083 75.424 11.083Z" fill="white"/>
<path d="M81.8365 17.2217C81.8365 17.6029 81.7462 17.9255 81.5657 18.1897C81.3885 18.4505 81.1227 18.6494 80.7683 18.7865C80.4138 18.9202 79.9725 18.9871 79.4442 18.9871C79.053 18.9871 78.717 18.962 78.4361 18.9119C78.1586 18.8617 77.8778 18.7781 77.5936 18.6611V17.3973C77.8978 17.5343 78.2238 17.648 78.5716 17.7383C78.9226 17.8252 79.2302 17.8687 79.4944 17.8687C79.7919 17.8687 80.0043 17.8252 80.1313 17.7383C80.2617 17.648 80.3269 17.531 80.3269 17.3872C80.3269 17.2936 80.3002 17.21 80.2467 17.1365C80.1965 17.0596 80.0862 16.9743 79.9157 16.8807C79.7451 16.7837 79.4777 16.6583 79.1132 16.5045C78.7621 16.3574 78.4729 16.2086 78.2456 16.0582C78.0215 15.9077 77.8544 15.7305 77.744 15.5266C77.637 15.3193 77.5835 15.0568 77.5835 14.7392C77.5835 14.2209 77.7842 13.8314 78.1854 13.5706C78.5899 13.3065 79.1299 13.1744 79.8053 13.1744C80.153 13.1744 80.4841 13.2095 80.7983 13.2797C81.116 13.3499 81.442 13.4619 81.7763 13.6157L81.3149 14.7191C81.0374 14.5987 80.7749 14.5001 80.5275 14.4232C80.2834 14.3463 80.0344 14.3078 79.7802 14.3078C79.5562 14.3078 79.3874 14.3379 79.2737 14.3981C79.16 14.4583 79.1032 14.5502 79.1032 14.674C79.1032 14.7642 79.1316 14.8445 79.1884 14.9147C79.2486 14.9849 79.3623 15.0635 79.5295 15.1504C79.7 15.234 79.9491 15.3427 80.2768 15.4764C80.5944 15.6068 80.8702 15.7439 81.1043 15.8877C81.3383 16.0281 81.5189 16.2036 81.6459 16.4143C81.773 16.6216 81.8365 16.8907 81.8365 17.2217Z" fill="white"/>
<path d="M86.2781 13.1744C86.91 13.1744 87.4199 13.4201 87.8077 13.9116C88.1989 14.4031 88.3945 15.1237 88.3945 16.0732C88.3945 16.7085 88.3026 17.2435 88.1187 17.6781C87.9348 18.1094 87.6807 18.4354 87.3563 18.6561C87.032 18.8768 86.6592 18.9871 86.2379 18.9871C85.9671 18.9871 85.7347 18.9537 85.5408 18.8868C85.3469 18.8166 85.1814 18.728 85.0443 18.621C84.9072 18.5107 84.7885 18.3936 84.6882 18.2699H84.608C84.6347 18.4037 84.6548 18.5407 84.6681 18.6812C84.6815 18.8216 84.6882 18.9587 84.6882 19.0924V21.3543H83.1585V13.2797H84.4023L84.618 14.0069H84.6882C84.7885 13.8565 84.9106 13.7177 85.0543 13.5907C85.1981 13.4636 85.3703 13.3633 85.5709 13.2897C85.7749 13.2128 86.0106 13.1744 86.2781 13.1744ZM85.7866 14.3981C85.5191 14.3981 85.3068 14.4533 85.1496 14.5636C84.9925 14.674 84.8771 14.8395 84.8036 15.0601C84.7333 15.2808 84.6949 15.56 84.6882 15.8977V16.0632C84.6882 16.4243 84.7216 16.7302 84.7885 16.981C84.8587 17.2318 84.9741 17.4223 85.1346 17.5527C85.2984 17.6831 85.5224 17.7483 85.8066 17.7483C86.0407 17.7483 86.2329 17.6831 86.3834 17.5527C86.5338 17.4223 86.6458 17.2318 86.7194 16.981C86.7963 16.7269 86.8348 16.4176 86.8348 16.0532C86.8348 15.5048 86.7495 15.0919 86.579 14.8144C86.4085 14.5369 86.1443 14.3981 85.7866 14.3981Z" fill="white"/>
<path d="M94.8823 16.0732C94.8823 16.5413 94.8188 16.9559 94.6917 17.317C94.568 17.6781 94.3858 17.9841 94.145 18.2348C93.9077 18.4822 93.6201 18.6695 93.2824 18.7965C92.9481 18.9236 92.5702 18.9871 92.149 18.9871C91.7544 18.9871 91.3916 18.9236 91.0606 18.7965C90.733 18.6695 90.4471 18.4822 90.203 18.2348C89.9623 17.9841 89.7751 17.6781 89.6413 17.317C89.5109 16.9559 89.4457 16.5413 89.4457 16.0732C89.4457 15.4513 89.5561 14.9247 89.7767 14.4934C89.9974 14.0621 90.3117 13.7344 90.7196 13.5104C91.1275 13.2864 91.614 13.1744 92.1791 13.1744C92.704 13.1744 93.1687 13.2864 93.5733 13.5104C93.9812 13.7344 94.3005 14.0621 94.5312 14.4934C94.7653 14.9247 94.8823 15.4513 94.8823 16.0732ZM91.0055 16.0732C91.0055 16.441 91.0456 16.7503 91.1258 17.0011C91.2061 17.2518 91.3315 17.4407 91.502 17.5678C91.6725 17.6948 91.8948 17.7584 92.169 17.7584C92.4398 17.7584 92.6588 17.6948 92.826 17.5678C92.9965 17.4407 93.1203 17.2518 93.1972 17.0011C93.2774 16.7503 93.3175 16.441 93.3175 16.0732C93.3175 15.7021 93.2774 15.3945 93.1972 15.1504C93.1203 14.903 92.9965 14.7174 92.826 14.5937C92.6555 14.47 92.4332 14.4081 92.159 14.4081C91.7544 14.4081 91.4602 14.5469 91.2763 14.8244C91.0957 15.1019 91.0055 15.5182 91.0055 16.0732Z" fill="white"/>
<path d="M99.4593 13.1744C100.058 13.1744 100.539 13.3382 100.904 13.6659C101.268 13.9902 101.45 14.5118 101.45 15.2307V18.8868H99.9207V15.6118C99.9207 15.2106 99.8471 14.908 99.7 14.704C99.5562 14.5001 99.3289 14.3981 99.0179 14.3981C98.5498 14.3981 98.2305 14.5569 98.06 14.8746C97.8895 15.1922 97.8042 15.6503 97.8042 16.2488V18.8868H96.2745V13.2797H97.4431L97.6487 13.9969H97.734C97.8544 13.803 98.0031 13.6458 98.1803 13.5255C98.3609 13.4051 98.5598 13.3165 98.7772 13.2596C98.9978 13.2028 99.2252 13.1744 99.4593 13.1744Z" fill="white"/>
<path d="M104.683 13.2797V18.8868H103.154V13.2797H104.683ZM103.921 11.083C104.148 11.083 104.344 11.1365 104.508 11.2435C104.671 11.3471 104.753 11.5427 104.753 11.8303C104.753 12.1145 104.671 12.3118 104.508 12.4221C104.344 12.5291 104.148 12.5826 103.921 12.5826C103.69 12.5826 103.493 12.5291 103.329 12.4221C103.169 12.3118 103.088 12.1145 103.088 11.8303C103.088 11.5427 103.169 11.3471 103.329 11.2435C103.493 11.1365 103.69 11.083 103.921 11.083Z" fill="white"/>
<path d="M107.951 11.083V12.8985C107.951 13.1092 107.944 13.3182 107.931 13.5255C107.921 13.7328 107.908 13.8932 107.891 14.0069H107.951C108.098 13.7762 108.299 13.5806 108.553 13.4201C108.807 13.2563 109.136 13.1744 109.541 13.1744C110.17 13.1744 110.679 13.4201 111.071 13.9116C111.462 14.4031 111.657 15.1237 111.657 16.0732C111.657 16.7118 111.567 17.2485 111.387 17.6831C111.206 18.1144 110.954 18.4404 110.629 18.6611C110.305 18.8784 109.929 18.9871 109.501 18.9871C109.09 18.9871 108.765 18.9136 108.528 18.7664C108.291 18.6193 108.098 18.4538 107.951 18.2699H107.846L107.59 18.8868H106.421V11.083H107.951ZM109.049 14.3981C108.782 14.3981 108.57 14.4533 108.413 14.5636C108.255 14.674 108.14 14.8395 108.066 15.0601C107.996 15.2808 107.958 15.56 107.951 15.8977V16.0632C107.951 16.6082 108.031 17.0261 108.192 17.317C108.352 17.6046 108.645 17.7483 109.07 17.7483C109.384 17.7483 109.633 17.6029 109.817 17.312C110.004 17.0211 110.098 16.6015 110.098 16.0532C110.098 15.5048 110.004 15.0919 109.817 14.8144C109.63 14.5369 109.374 14.3981 109.049 14.3981Z" fill="white"/>
<path d="M114.579 18.8868H113.05V11.083H114.579V18.8868Z" fill="white"/>
<path d="M118.63 13.1744C119.148 13.1744 119.594 13.2747 119.969 13.4753C120.343 13.6726 120.632 13.9601 120.836 14.3379C121.04 14.7158 121.142 15.1772 121.142 15.7222V16.4644H117.526C117.543 16.8957 117.672 17.2351 117.913 17.4825C118.157 17.7266 118.494 17.8486 118.926 17.8486C119.283 17.8486 119.611 17.8119 119.909 17.7383C120.206 17.6647 120.512 17.5544 120.826 17.4073V18.5909C120.549 18.728 120.258 18.8283 119.954 18.8918C119.653 18.9553 119.287 18.9871 118.855 18.9871C118.294 18.9871 117.795 18.8835 117.361 18.6762C116.93 18.4689 116.59 18.1529 116.343 17.7283C116.099 17.3036 115.977 16.7687 115.977 16.1234C115.977 15.468 116.087 14.9231 116.308 14.4884C116.532 14.0504 116.843 13.7227 117.24 13.5054C117.638 13.2847 118.101 13.1744 118.63 13.1744ZM118.64 14.2627C118.342 14.2627 118.095 14.358 117.897 14.5486C117.704 14.7392 117.592 15.0384 117.561 15.4463H119.708C119.705 15.219 119.663 15.0167 119.583 14.8395C119.506 14.6623 119.389 14.5218 119.232 14.4182C119.078 14.3145 118.88 14.2627 118.64 14.2627Z" fill="white"/>
<path d="M129.223 17.2217C129.223 17.6029 129.133 17.9255 128.952 18.1897C128.775 18.4505 128.509 18.6494 128.155 18.7865C127.8 18.9202 127.359 18.9871 126.831 18.9871C126.44 18.9871 126.103 18.962 125.823 18.9119C125.545 18.8617 125.264 18.7781 124.98 18.6611V17.3973C125.284 17.5343 125.61 17.648 125.958 17.7383C126.309 17.8252 126.617 17.8687 126.881 17.8687C127.178 17.8687 127.391 17.8252 127.518 17.7383C127.648 17.648 127.713 17.531 127.713 17.3872C127.713 17.2936 127.687 17.21 127.633 17.1365C127.583 17.0596 127.473 16.9743 127.302 16.8807C127.132 16.7837 126.864 16.6583 126.5 16.5045C126.149 16.3574 125.859 16.2086 125.632 16.0582C125.408 15.9077 125.241 15.7305 125.131 15.5266C125.024 15.3193 124.97 15.0568 124.97 14.7392C124.97 14.2209 125.171 13.8314 125.572 13.5706C125.976 13.3065 126.516 13.1744 127.192 13.1744C127.54 13.1744 127.871 13.2095 128.185 13.2797C128.502 13.3499 128.828 13.4619 129.163 13.6157L128.701 14.7191C128.424 14.5987 128.161 14.5001 127.914 14.4232C127.67 14.3463 127.421 14.3078 127.167 14.3078C126.943 14.3078 126.774 14.3379 126.66 14.3981C126.547 14.4583 126.49 14.5502 126.49 14.674C126.49 14.7642 126.518 14.8445 126.575 14.9147C126.635 14.9849 126.749 15.0635 126.916 15.1504C127.086 15.234 127.336 15.3427 127.663 15.4764C127.981 15.6068 128.257 15.7439 128.491 15.8877C128.725 16.0281 128.905 16.2036 129.032 16.4143C129.159 16.6216 129.223 16.8907 129.223 17.2217Z" fill="white"/>
<path d="M135.691 13.2797V18.8868H134.517L134.312 18.1696H134.231C134.111 18.3602 133.96 18.5157 133.78 18.636C133.599 18.7564 133.4 18.845 133.183 18.9019C132.966 18.9587 132.74 18.9871 132.506 18.9871C132.105 18.9871 131.755 18.9169 131.458 18.7765C131.16 18.6327 130.928 18.4104 130.761 18.1094C130.597 17.8085 130.515 17.4173 130.515 16.9359V13.2797H132.045V16.5547C132.045 16.9559 132.117 17.2585 132.26 17.4625C132.404 17.6664 132.633 17.7684 132.947 17.7684C133.258 17.7684 133.502 17.6982 133.68 17.5578C133.857 17.414 133.981 17.205 134.051 16.9308C134.124 16.6533 134.161 16.3156 134.161 15.9178V13.2797H135.691Z" fill="white"/>
<path d="M140.554 13.1744C140.63 13.1744 140.719 13.1794 140.819 13.1894C140.923 13.1961 141.007 13.2061 141.07 13.2195L140.955 14.6539C140.905 14.6372 140.833 14.6255 140.739 14.6188C140.649 14.6088 140.57 14.6037 140.503 14.6037C140.306 14.6037 140.114 14.6288 139.927 14.679C139.743 14.7291 139.577 14.811 139.43 14.9247C139.283 15.0351 139.166 15.1822 139.079 15.3661C138.995 15.5466 138.954 15.769 138.954 16.0331V18.8868H137.424V13.2797H138.583L138.808 14.2226H138.883C138.994 14.032 139.131 13.8581 139.295 13.701C139.462 13.5405 139.651 13.4134 139.861 13.3198C140.075 13.2229 140.306 13.1744 140.554 13.1744Z" fill="white"/>
<path d="M79.5842 43.7244H72.1287L70.3072 48.7384H67.0454L74.3315 29.9254H77.4238L84.8793 48.7384H81.4481L79.5842 43.7244ZM73.0607 41.1532H78.6099L76.619 35.7535C76.3648 35.025 76.0683 34.1679 75.8141 33.268C75.56 34.0822 75.3058 34.8965 75.0516 35.7107L73.0607 41.1532Z" fill="white"/>
<path d="M86.1925 38.1531C86.1925 37.1246 86.1501 35.9676 86.1078 34.7248H89.073C89.2001 35.3247 89.2425 35.8819 89.2848 36.4818C90.5133 35.1105 91.9112 34.4248 93.5209 34.4248C94.4528 34.4248 95.3 34.6391 96.1049 35.1105C96.9098 35.5819 97.5452 36.3104 98.0111 37.3389C98.4771 38.3674 98.7313 39.653 98.7313 41.1958C98.7313 42.8242 98.4347 44.2384 97.8841 45.3955C97.3334 46.5526 96.5709 47.4525 95.5542 48.0096C94.5799 48.6096 93.4362 48.9096 92.123 48.9096C91.1911 48.9096 90.2591 48.7381 89.3272 48.4382V54.3092L86.1501 54.5663V38.1531H86.1925ZM94.5376 45.3098C95.173 44.4527 95.5119 43.1671 95.5119 41.4529C95.5119 39.8673 95.2577 38.7531 94.707 38.0674C94.1563 37.3818 93.4785 36.9961 92.589 36.9961C91.9536 36.9961 91.4029 37.1246 90.8945 37.4246C90.3862 37.7246 89.8779 38.1103 89.4119 38.6245V46.124C89.7084 46.2954 90.0897 46.424 90.5133 46.5097C90.9369 46.5954 91.3605 46.6383 91.7418 46.6383C92.9279 46.6383 93.8598 46.2097 94.5376 45.3098Z" fill="white"/>
<path d="M100.638 38.1531C100.638 37.1246 100.595 35.9676 100.553 34.7248H103.518C103.645 35.3247 103.687 35.8819 103.73 36.4818C104.958 35.1105 106.356 34.4248 107.966 34.4248C108.898 34.4248 109.745 34.6391 110.55 35.1105C111.355 35.5819 111.99 36.3104 112.456 37.3389C112.922 38.3674 113.176 39.653 113.176 41.1958C113.176 42.8242 112.88 44.2384 112.329 45.3955C111.778 46.5526 111.016 47.4525 109.999 48.0096C109.025 48.6096 107.881 48.9096 106.568 48.9096C105.636 48.9096 104.704 48.7381 103.772 48.4382V54.3092L100.595 54.5663V38.1531H100.638ZM108.983 45.3098C109.618 44.4527 109.957 43.1671 109.957 41.4529C109.957 39.8673 109.703 38.7531 109.152 38.0674C108.601 37.3818 107.924 36.9961 107.034 36.9961C106.399 36.9961 105.848 37.1246 105.34 37.4246C104.831 37.7246 104.323 38.1103 103.857 38.6245V46.124C104.153 46.2954 104.535 46.424 104.958 46.5097C105.382 46.5954 105.806 46.6383 106.187 46.6383C107.373 46.6383 108.347 46.2097 108.983 45.3098Z" fill="white"/>
<path d="M118.98 47.8384C117.624 47.067 116.565 45.9956 115.845 44.5386C115.125 43.1244 114.744 41.4102 114.744 39.4818C114.744 37.3819 115.167 35.582 116.014 34.125C116.862 32.6679 118.005 31.5537 119.488 30.8252C120.928 30.0967 122.58 29.711 124.402 29.711C125.461 29.711 126.478 29.8396 127.452 30.0538C128.426 30.311 129.316 30.6109 130.163 31.0395L129.358 33.525C127.664 32.7108 126.054 32.3251 124.529 32.3251C123.258 32.3251 122.114 32.6251 121.14 33.1822C120.166 33.7393 119.403 34.5535 118.895 35.6249C118.344 36.6963 118.09 38.0247 118.09 39.5246C118.09 40.8531 118.302 42.053 118.726 43.0815C119.149 44.11 119.785 44.9243 120.674 45.5671C121.564 46.1671 122.707 46.467 124.063 46.467C124.698 46.467 125.291 46.4242 125.927 46.2956C126.562 46.1671 127.113 46.0385 127.664 45.8242V42.0102H123.385V39.5246H130.756V47.4527C129.697 47.9669 128.596 48.3526 127.409 48.6097C126.223 48.8669 125.08 48.9954 123.936 48.9954C121.987 48.9954 120.378 48.6097 118.98 47.8384Z" fill="white"/>
<path d="M141.897 48.738C141.77 48.1809 141.727 47.5809 141.685 46.8953C141.177 47.4952 140.584 47.9666 139.779 48.3952C139.016 48.8237 138.127 48.9951 137.11 48.9951C136.305 48.9951 135.585 48.8237 134.95 48.5237C134.314 48.2237 133.764 47.7523 133.382 47.1095C133.001 46.4667 132.789 45.6953 132.789 44.7954C132.789 43.4241 133.255 42.3527 134.23 41.5385C135.204 40.7242 136.814 40.3386 139.059 40.3386C139.906 40.3386 140.753 40.3814 141.558 40.51V40.2528C141.558 39.0101 141.304 38.153 140.795 37.6387C140.287 37.1245 139.525 36.8674 138.55 36.8674C137.873 36.8674 137.152 36.9531 136.39 37.1673C135.627 37.3816 134.95 37.5959 134.357 37.8959L133.848 35.5817C134.399 35.3246 135.161 35.0675 136.093 34.8532C137.025 34.6389 138 34.5104 139.016 34.5104C140.202 34.5104 141.219 34.6818 142.066 35.0675C142.913 35.4532 143.549 36.0531 144.015 36.9531C144.481 37.853 144.735 39.0529 144.735 40.5528V46.1239C144.735 46.7238 144.777 47.5809 144.82 48.738H141.897ZM140.033 46.1239C140.711 45.8239 141.219 45.3954 141.643 44.924V42.3099C140.795 42.2241 140.075 42.1813 139.525 42.1813C138.211 42.1813 137.322 42.3956 136.814 42.8241C136.305 43.2526 136.051 43.8098 136.051 44.5383C136.051 45.2239 136.22 45.7382 136.602 46.081C136.983 46.4239 137.449 46.5953 138.084 46.5953C138.72 46.6381 139.355 46.4667 140.033 46.1239Z" fill="white"/>
<path d="M147.234 45.3954V28.8537L150.369 28.5966V44.8383C150.369 45.4383 150.454 45.8668 150.666 46.124C150.877 46.3811 151.174 46.5097 151.64 46.5097C151.852 46.5097 152.106 46.4668 152.487 46.3811L152.868 48.6952C152.572 48.8238 152.191 48.9095 151.767 48.9952C151.343 49.0809 150.92 49.1238 150.538 49.1238C148.336 48.9952 147.234 47.7953 147.234 45.3954Z" fill="white"/>
<path d="M155.113 45.3954V28.8537L158.248 28.5966V44.8383C158.248 45.4383 158.333 45.8668 158.545 46.124C158.756 46.3811 159.053 46.5097 159.519 46.5097C159.731 46.5097 159.985 46.4668 160.366 46.3811L160.747 48.6952C160.451 48.8238 160.07 48.9095 159.646 48.9952C159.222 49.0809 158.799 49.1238 158.418 49.1238C156.215 48.9952 155.113 47.7953 155.113 45.3954Z" fill="white"/>
<path d="M173.71 42.1386H164.645C164.772 45.0527 166.17 46.5526 168.796 46.5526C169.431 46.5526 170.109 46.4669 170.787 46.2954C171.465 46.124 172.1 45.9098 172.735 45.6526L173.413 47.8382C171.846 48.6096 170.109 48.9953 168.203 48.9953C166.72 48.9953 165.492 48.6953 164.475 48.1382C163.458 47.5811 162.696 46.7668 162.188 45.6955C161.679 44.6241 161.425 43.3814 161.425 41.8815C161.425 40.3387 161.679 39.0102 162.23 37.896C162.781 36.7818 163.501 35.9247 164.475 35.3247C165.449 34.7248 166.551 34.4248 167.822 34.4248C169.135 34.4248 170.236 34.7248 171.083 35.3676C171.973 35.9676 172.608 36.8246 173.032 37.8531C173.456 38.8817 173.667 40.0387 173.667 41.2815V42.1386H173.71ZM170.617 40.1244C170.575 39.0102 170.279 38.1531 169.77 37.596C169.262 37.0389 168.626 36.7389 167.779 36.7389C166.974 36.7389 166.297 37.0389 165.788 37.596C165.238 38.1531 164.899 39.0102 164.729 40.0816H170.617V40.1244Z" fill="white"/>
<path d="M176.082 38.2387C176.082 37.4673 176.04 36.3103 175.997 34.7246H178.962C179.005 35.1103 179.047 35.5817 179.09 36.1388C179.132 36.6959 179.174 37.1245 179.174 37.4673C179.556 36.8674 179.894 36.3531 180.276 35.9246C180.615 35.496 181.038 35.1532 181.504 34.8961C181.97 34.6389 182.521 34.5104 183.114 34.5104C183.622 34.5104 184.003 34.5532 184.385 34.6818L184.003 37.4673C183.707 37.3816 183.368 37.3388 182.987 37.3388C182.224 37.3388 181.589 37.5102 181.038 37.8959C180.487 38.2816 179.894 38.9244 179.259 39.7815V48.7809H176.124V38.2387H176.082Z" fill="white"/>
<path d="M186.164 54.4803C185.698 54.3946 185.317 54.3088 185.02 54.1803L185.613 51.8661C185.825 51.909 186.079 51.9947 186.418 52.0376C186.757 52.0804 187.053 52.1233 187.35 52.1233C188.748 52.1233 189.807 51.2233 190.485 49.3806L190.696 48.8663L185.613 34.7673H189.002L191.586 42.6525C192.01 43.981 192.264 45.0523 192.391 45.738C192.645 44.7095 192.899 43.7238 193.238 42.6953L195.822 34.7244H198.999L193.916 48.9092C193.45 50.2377 192.899 51.3519 192.349 52.1661C191.798 52.9804 191.12 53.5803 190.4 54.0089C189.637 54.3946 188.748 54.6088 187.646 54.6088C187.138 54.6088 186.63 54.566 186.164 54.4803Z" fill="white"/>
<path fill-rule="evenodd" clip-rule="evenodd" d="M43.7469 12.687H26.1672C17.8645 12.687 14.8569 15.7725 14.8569 24.1291V41.9136C14.8569 50.313 17.9068 53.3557 26.1672 53.3557H43.7469C52.0496 53.3557 55.0572 50.2702 55.0572 41.9136V24.1291C55.0996 15.7725 52.0496 12.687 43.7469 12.687Z" fill="#D6001C"/>
<path d="M22.8207 33.043H23.8797V38.3569H22.8207V36.2142H20.4061V38.3569H19.3471V33.043H20.4061V35.1857H22.8207V33.043ZM28.8359 36.0856C28.8359 36.9427 28.4123 37.4141 27.6498 37.4141C26.8873 37.4141 26.4637 36.9427 26.4637 36.0428V33.043H25.4047V36.0856C25.4047 37.5855 26.2095 38.4426 27.6498 38.4426C29.0901 38.4426 29.9373 37.5855 29.9373 36.0428V33.043H28.8783V36.0856H28.8359ZM41.1629 36.6856L39.9768 33.043H39.0872L37.9011 36.6856L36.7574 33.043H35.6136L37.4351 38.3569H38.3247L39.5108 34.8428L40.6969 38.3569H41.5865L43.408 33.043H42.3066L41.1629 36.6856ZM45.3566 36.0856H47.3052V35.1H45.3566V34.0286H48.1947V33.043H44.3399V38.3569H48.3218V37.3713H45.399V36.0856H45.3566ZM49.5503 38.3569H50.6093V33.043H49.5503V38.3569ZM32.0129 37.2427L31.547 38.3569H30.4456L32.7331 33.043H33.665L35.9525 38.3569H34.8511L34.3852 37.2427H32.0129ZM32.3942 36.2999H34.0039L33.199 34.4143L32.3942 36.2999Z" fill="white"/>
<path d="M34.9783 26.2719C31.2929 26.2719 28.2853 23.2292 28.2853 19.5009H29.2172C29.2172 22.715 31.8012 25.3291 34.9783 25.3291C38.1553 25.3291 40.7393 22.715 40.7393 19.5009H41.6712C41.6712 23.2292 38.6636 26.2719 34.9783 26.2719Z" fill="white"/>
</svg>
