<svg width="212" height="66" viewBox="0 0 212 66" fill="none" xmlns="http://www.w3.org/2000/svg">
<path d="M195.05 0.902247H16.9539C16.3047 0.902247 15.6633 0.902247 15.0159 0.905457C14.4739 0.908667 13.9362 0.917991 13.389 0.925839C12.2002 0.938521 11.0143 1.03333 9.84142 1.20944C8.6702 1.38938 7.53568 1.72863 6.47621 2.21571C5.41805 2.7069 4.45117 3.34516 3.61066 4.10733C2.76573 4.86736 2.06142 5.74584 1.52481 6.70901C0.986713 7.67026 0.613597 8.70033 0.418345 9.76364C0.221237 10.8256 0.115172 11.8998 0.1011 12.9766C0.0846717 13.4687 0.0829367 13.9624 0.0742798 14.4545V51.5504C0.0829367 52.0488 0.0846717 52.5315 0.1011 53.03C0.115176 54.1068 0.221242 55.1809 0.418345 56.2428C0.613058 57.3068 0.986196 58.3374 1.52481 59.299C2.06118 60.2591 2.76559 61.134 3.61066 61.8898C4.44798 62.6554 5.41548 63.2941 6.47621 63.7815C7.53567 64.2699 8.67007 64.6111 9.84142 64.7939C11.0145 64.9686 12.2003 65.0634 13.389 65.0776C13.9362 65.0885 14.4739 65.0948 15.0159 65.0948C15.6633 65.098 16.3047 65.098 16.9539 65.098H195.05C195.686 65.098 196.333 65.098 196.969 65.0948C197.509 65.0948 198.062 65.0885 198.601 65.0776C199.788 65.0642 200.971 64.9693 202.142 64.7939C203.317 64.6099 204.456 64.2687 205.52 63.7815C206.58 63.2938 207.547 62.6551 208.383 61.8898C209.226 61.1311 209.932 60.2568 210.475 59.299C211.01 58.3367 211.379 57.3061 211.571 56.2428C211.768 55.1808 211.878 54.1069 211.9 53.03C211.906 52.5315 211.906 52.0488 211.906 51.5504C211.92 50.9674 211.92 50.3875 211.92 49.795V16.2067C211.92 15.619 211.92 15.036 211.906 14.4545C211.906 13.9624 211.906 13.4687 211.9 12.9766C211.878 11.8997 211.768 10.8257 211.571 9.76357C211.379 8.70088 211.009 7.67089 210.475 6.70894C209.382 4.77838 207.649 3.20692 205.52 2.21556C204.456 1.72968 203.317 1.39052 202.142 1.2093C200.972 1.03241 199.788 0.937567 198.601 0.925614C198.062 0.917783 197.509 0.908378 196.969 0.905248C196.333 0.902039 195.686 0.902039 195.05 0.902039V0.902247Z" fill="#A6A6A6"/>
<path d="M15.0245 63.6935C14.4851 63.6935 13.9588 63.6872 13.4236 63.6763C12.315 63.6632 11.209 63.5757 10.1146 63.4145C9.09415 63.2552 8.10562 62.9589 7.1816 62.5352C6.26605 62.1151 5.431 61.5642 4.70843 60.9037C3.97541 60.2509 3.36513 59.4939 2.90179 58.6624C2.43333 57.8256 2.10914 56.9287 1.94049 56.0028C1.75837 55.008 1.65983 54.002 1.64573 52.9936C1.63451 52.6552 1.61981 51.5282 1.61981 51.5282V14.4543C1.61981 14.4543 1.63546 13.3446 1.64582 13.0186C1.65932 12.0118 1.75728 11.0075 1.93886 10.0141C2.10782 9.08575 2.43227 8.1862 2.90097 7.34665C3.36261 6.51582 3.9695 5.75818 4.69811 5.10309C5.42591 4.44178 6.26363 3.88806 7.18073 3.46214C8.10263 3.03986 9.08929 2.74559 10.1077 2.58917C11.2056 2.42638 12.3155 2.33837 13.428 2.32587L15.0254 2.30627H196.961L198.577 2.32666C199.679 2.33853 200.779 2.42576 201.867 2.5876C202.896 2.74598 203.893 3.0423 204.825 3.46684C206.662 4.32521 208.157 5.68323 209.101 7.35057C209.562 8.18432 209.881 9.07653 210.048 9.99691C210.232 10.9984 210.335 12.0106 210.356 13.0257C210.361 13.4802 210.361 13.9684 210.361 14.4543C210.375 15.0561 210.375 15.6289 210.375 16.2065V49.7948C210.375 50.3778 210.375 50.9468 210.361 51.5204C210.361 52.0423 210.361 52.5204 210.354 53.0124C210.333 54.0093 210.232 55.0036 210.051 55.9871C209.886 56.9196 209.564 57.8236 209.095 58.6673C208.629 59.4896 208.022 60.2402 207.297 60.8912C206.574 61.5552 205.738 62.1093 204.82 62.5322C203.89 62.9591 202.895 63.2565 201.867 63.4145C200.773 63.5766 199.667 63.6641 198.558 63.6763C198.039 63.6872 197.496 63.6935 196.969 63.6935L195.05 63.6967L15.0245 63.6935Z" fill="black"/>
<path d="M43.9236 33.4818C43.9427 32.1423 44.3351 30.8289 45.0646 29.6638C45.794 28.4987 46.8367 27.5198 48.0955 26.8182C47.2958 25.7828 46.2408 24.9307 45.0142 24.3296C43.7877 23.7285 42.4234 23.3949 41.0298 23.3554C38.057 23.0725 35.175 24.968 33.6601 24.968C32.1159 24.968 29.7834 23.3835 27.2718 23.4303C25.6472 23.4779 24.0639 23.9062 22.6762 24.6734C21.2885 25.4406 20.1436 26.5207 19.3532 27.8083C15.9294 33.1821 18.4833 41.0799 21.763 45.4237C23.4039 47.5507 25.3217 49.9267 27.8311 49.8425C30.2866 49.7501 31.2037 48.423 34.1678 48.423C37.1044 48.423 37.9648 49.8425 40.5251 49.7889C43.1601 49.7501 44.8202 47.6524 46.4035 45.5052C47.5825 43.9896 48.4898 42.3145 49.0917 40.542C47.5608 39.9551 46.2545 38.9726 45.3354 37.7171C44.4164 36.4616 43.9254 34.9886 43.9236 33.4818Z" fill="white"/>
<path d="M39.0877 20.4996C40.5244 18.9361 41.2322 16.9265 41.0608 14.8975C38.8658 15.1065 36.8383 16.0575 35.3823 17.561C34.6703 18.2955 34.1251 19.15 33.7777 20.0757C33.4302 21.0013 33.2875 21.98 33.3575 22.9557C34.4554 22.9659 35.5415 22.7502 36.534 22.3248C37.5266 21.8993 38.3997 21.2753 39.0877 20.4996Z" fill="white"/>
<path d="M67.1059 15.8828C67.1059 16.7086 66.947 17.3991 66.6294 17.9541C66.3151 18.5058 65.8587 18.922 65.2602 19.2029C64.6617 19.4804 63.9412 19.6192 63.0986 19.6192H61.0223V12.2868H63.3243C64.0933 12.2868 64.7604 12.4239 65.3254 12.6981C65.8905 12.9689 66.3285 13.3718 66.6394 13.9067C66.9504 14.4384 67.1059 15.097 67.1059 15.8828ZM65.4909 15.9229C65.4909 15.3812 65.4107 14.9366 65.2502 14.5888C65.0931 14.2378 64.859 13.9786 64.5481 13.8115C64.2405 13.6443 63.8593 13.5607 63.4046 13.5607H62.577V18.3353H63.2441C64.0031 18.3353 64.5664 18.133 64.9342 17.7284C65.3054 17.3238 65.4909 16.722 65.4909 15.9229Z" fill="white"/>
<path d="M70.1632 14.0121V19.6192H68.6335V14.0121H70.1632ZM69.4009 11.8154C69.6282 11.8154 69.8238 11.8689 69.9876 11.9759C70.1515 12.0795 70.2334 12.2751 70.2334 12.5626C70.2334 12.8468 70.1515 13.0441 69.9876 13.1545C69.8238 13.2614 69.6282 13.3149 69.4009 13.3149C69.1702 13.3149 68.9729 13.2614 68.8091 13.1545C68.6486 13.0441 68.5683 12.8468 68.5683 12.5626C68.5683 12.2751 68.6486 12.0795 68.8091 11.9759C68.9729 11.8689 69.1702 11.8154 69.4009 11.8154Z" fill="white"/>
<path d="M75.8134 17.9541C75.8134 18.3353 75.7231 18.6579 75.5426 18.922C75.3654 19.1828 75.0996 19.3818 74.7452 19.5189C74.3907 19.6526 73.9494 19.7195 73.4211 19.7195C73.0299 19.7195 72.6939 19.6944 72.413 19.6442C72.1355 19.5941 71.8547 19.5105 71.5705 19.3935V18.1296C71.8747 18.2667 72.2007 18.3804 72.5485 18.4707C72.8995 18.5576 73.2071 18.6011 73.4713 18.6011C73.7688 18.6011 73.9812 18.5576 74.1082 18.4707C74.2386 18.3804 74.3038 18.2634 74.3038 18.1196C74.3038 18.026 74.2771 17.9424 74.2236 17.8688C74.1734 17.7919 74.0631 17.7067 73.8926 17.613C73.722 17.5161 73.4546 17.3907 73.0901 17.2369C72.739 17.0898 72.4498 16.941 72.2225 16.7905C71.9984 16.6401 71.8313 16.4629 71.7209 16.2589C71.6139 16.0516 71.5604 15.7892 71.5604 15.4715C71.5604 14.9533 71.7611 14.5637 72.1623 14.303C72.5668 14.0388 73.1068 13.9067 73.7822 13.9067C74.1299 13.9067 74.461 13.9419 74.7752 14.0121C75.0929 14.0823 75.4189 14.1943 75.7532 14.3481L75.2918 15.4515C75.0143 15.3311 74.7518 15.2325 74.5044 15.1556C74.2603 15.0787 74.0112 15.0402 73.7571 15.0402C73.5331 15.0402 73.3643 15.0703 73.2506 15.1305C73.1369 15.1907 73.0801 15.2826 73.0801 15.4063C73.0801 15.4966 73.1085 15.5768 73.1653 15.6471C73.2255 15.7173 73.3392 15.7958 73.5064 15.8828C73.6769 15.9664 73.926 16.075 74.2537 16.2088C74.5713 16.3392 74.8471 16.4762 75.0812 16.62C75.3152 16.7604 75.4958 16.936 75.6228 17.1466C75.7499 17.3539 75.8134 17.6231 75.8134 17.9541Z" fill="white"/>
<path d="M80.255 13.9067C80.8869 13.9067 81.3968 14.1525 81.7846 14.644C82.1758 15.1355 82.3714 15.856 82.3714 16.8056C82.3714 17.4409 82.2795 17.9758 82.0956 18.4105C81.9117 18.8418 81.6576 19.1678 81.3332 19.3885C81.0089 19.6091 80.6361 19.7195 80.2148 19.7195C79.944 19.7195 79.7116 19.686 79.5177 19.6192C79.3238 19.549 79.1583 19.4603 79.0212 19.3534C78.8841 19.243 78.7654 19.126 78.6651 19.0023H78.5849C78.6116 19.136 78.6317 19.2731 78.645 19.4135C78.6584 19.554 78.6651 19.6911 78.6651 19.8248V22.0867H77.1354V14.0121H78.3792L78.5949 14.7393H78.6651C78.7654 14.5888 78.8875 14.4501 79.0312 14.323C79.175 14.196 79.3472 14.0957 79.5478 14.0221C79.7518 13.9452 79.9875 13.9067 80.255 13.9067ZM79.7635 15.1305C79.496 15.1305 79.2837 15.1856 79.1265 15.296C78.9694 15.4063 78.854 15.5718 78.7805 15.7925C78.7102 16.0132 78.6718 16.2924 78.6651 16.6301V16.7956C78.6651 17.1567 78.6985 17.4626 78.7654 17.7134C78.8356 17.9641 78.951 18.1547 79.1115 18.2851C79.2753 18.4155 79.4993 18.4807 79.7835 18.4807C80.0176 18.4807 80.2098 18.4155 80.3603 18.2851C80.5107 18.1547 80.6227 17.9641 80.6963 17.7134C80.7732 17.4592 80.8117 17.15 80.8117 16.7855C80.8117 16.2372 80.7264 15.8243 80.5559 15.5467C80.3854 15.2692 80.1212 15.1305 79.7635 15.1305Z" fill="white"/>
<path d="M88.8592 16.8056C88.8592 17.2737 88.7957 17.6883 88.6686 18.0494C88.5449 18.4105 88.3627 18.7164 88.1219 18.9672C87.8846 19.2146 87.597 19.4018 87.2593 19.5289C86.925 19.6559 86.5471 19.7195 86.1259 19.7195C85.7313 19.7195 85.3685 19.6559 85.0375 19.5289C84.7099 19.4018 84.424 19.2146 84.1799 18.9672C83.9392 18.7164 83.752 18.4105 83.6182 18.0494C83.4878 17.6883 83.4226 17.2737 83.4226 16.8056C83.4226 16.1837 83.5329 15.6571 83.7536 15.2258C83.9743 14.7945 84.2886 14.4668 84.6965 14.2428C85.1044 14.0188 85.5909 13.9067 86.1559 13.9067C86.6809 13.9067 87.1456 14.0188 87.5502 14.2428C87.9581 14.4668 88.2774 14.7945 88.5081 15.2258C88.7422 15.6571 88.8592 16.1837 88.8592 16.8056ZM84.9824 16.8056C84.9824 17.1734 85.0225 17.4827 85.1027 17.7334C85.183 17.9842 85.3084 18.1731 85.4789 18.3001C85.6494 18.4272 85.8717 18.4907 86.1459 18.4907C86.4167 18.4907 86.6357 18.4272 86.8029 18.3001C86.9734 18.1731 87.0972 17.9842 87.1741 17.7334C87.2543 17.4827 87.2944 17.1734 87.2944 16.8056C87.2944 16.4345 87.2543 16.1268 87.1741 15.8828C87.0972 15.6354 86.9734 15.4498 86.8029 15.3261C86.6324 15.2024 86.4101 15.1405 86.1359 15.1405C85.7313 15.1405 85.4371 15.2793 85.2532 15.5568C85.0726 15.8343 84.9824 16.2506 84.9824 16.8056Z" fill="white"/>
<path d="M93.4361 13.9067C94.0346 13.9067 94.5161 14.0706 94.8806 14.3982C95.245 14.7226 95.4272 15.2442 95.4272 15.963V19.6192H93.8976V16.3442C93.8976 15.943 93.824 15.6404 93.6769 15.4364C93.5331 15.2325 93.3058 15.1305 92.9948 15.1305C92.5267 15.1305 92.2074 15.2893 92.0369 15.6069C91.8664 15.9246 91.7811 16.3826 91.7811 16.9811V19.6192H90.2514V14.0121H91.42L91.6256 14.7293H91.7109C91.8313 14.5353 91.98 14.3782 92.1572 14.2578C92.3378 14.1374 92.5367 14.0488 92.7541 13.992C92.9747 13.9352 93.2021 13.9067 93.4361 13.9067Z" fill="white"/>
<path d="M98.6601 14.0121V19.6192H97.1304V14.0121H98.6601ZM97.8978 11.8154C98.1251 11.8154 98.3207 11.8689 98.4845 11.9759C98.6484 12.0795 98.7303 12.2751 98.7303 12.5626C98.7303 12.8468 98.6484 13.0441 98.4845 13.1545C98.3207 13.2614 98.1251 13.3149 97.8978 13.3149C97.667 13.3149 97.4698 13.2614 97.306 13.1545C97.1455 13.0441 97.0652 12.8468 97.0652 12.5626C97.0652 12.2751 97.1455 12.0795 97.306 11.9759C97.4698 11.8689 97.667 11.8154 97.8978 11.8154Z" fill="white"/>
<path d="M101.928 11.8154V13.6309C101.928 13.8415 101.921 14.0505 101.908 14.2578C101.898 14.4651 101.885 14.6256 101.868 14.7393H101.928C102.075 14.5086 102.276 14.313 102.53 14.1525C102.784 13.9887 103.113 13.9067 103.518 13.9067C104.146 13.9067 104.656 14.1525 105.048 14.644C105.439 15.1355 105.634 15.856 105.634 16.8056C105.634 17.4442 105.544 17.9808 105.364 18.4155C105.183 18.8468 104.931 19.1728 104.606 19.3935C104.282 19.6108 103.906 19.7195 103.478 19.7195C103.067 19.7195 102.742 19.6459 102.505 19.4988C102.267 19.3517 102.075 19.1862 101.928 19.0023H101.823L101.567 19.6192H100.398V11.8154H101.928ZM103.026 15.1305C102.759 15.1305 102.547 15.1856 102.389 15.296C102.232 15.4063 102.117 15.5718 102.043 15.7925C101.973 16.0132 101.935 16.2924 101.928 16.6301V16.7956C101.928 17.3406 102.008 17.7585 102.169 18.0494C102.329 18.3369 102.622 18.4807 103.046 18.4807C103.361 18.4807 103.61 18.3353 103.794 18.0444C103.981 17.7535 104.075 17.3339 104.075 16.7855C104.075 16.2372 103.981 15.8243 103.794 15.5467C103.606 15.2692 103.351 15.1305 103.026 15.1305Z" fill="white"/>
<path d="M108.556 19.6192H107.027V11.8154H108.556V19.6192Z" fill="white"/>
<path d="M112.607 13.9067C113.125 13.9067 113.571 14.0071 113.946 14.2077C114.32 14.4049 114.609 14.6925 114.813 15.0703C115.017 15.4481 115.119 15.9095 115.119 16.4545V17.1968H111.503C111.52 17.6281 111.649 17.9675 111.889 18.2149C112.133 18.459 112.471 18.581 112.903 18.581C113.26 18.581 113.588 18.5442 113.886 18.4707C114.183 18.3971 114.489 18.2868 114.803 18.1397V19.3233C114.526 19.4603 114.235 19.5607 113.931 19.6242C113.63 19.6877 113.264 19.7195 112.832 19.7195C112.271 19.7195 111.772 19.6158 111.338 19.4085C110.906 19.2012 110.567 18.8853 110.32 18.4606C110.076 18.036 109.954 17.501 109.954 16.8557C109.954 16.2004 110.064 15.6554 110.285 15.2208C110.509 14.7828 110.819 14.4551 111.217 14.2378C111.615 14.0171 112.078 13.9067 112.607 13.9067ZM112.617 14.9951C112.319 14.9951 112.072 15.0904 111.874 15.2809C111.68 15.4715 111.568 15.7708 111.538 16.1787H113.685C113.682 15.9513 113.64 15.749 113.56 15.5718C113.483 15.3946 113.366 15.2542 113.208 15.1505C113.055 15.0469 112.857 14.9951 112.617 14.9951Z" fill="white"/>
<path d="M123.2 17.9541C123.2 18.3353 123.11 18.6579 122.929 18.922C122.752 19.1828 122.486 19.3818 122.132 19.5189C121.777 19.6526 121.336 19.7195 120.808 19.7195C120.416 19.7195 120.08 19.6944 119.8 19.6442C119.522 19.5941 119.241 19.5105 118.957 19.3935V18.1296C119.261 18.2667 119.587 18.3804 119.935 18.4707C120.286 18.5576 120.594 18.6011 120.858 18.6011C121.155 18.6011 121.368 18.5576 121.495 18.4707C121.625 18.3804 121.69 18.2634 121.69 18.1196C121.69 18.026 121.664 17.9424 121.61 17.8688C121.56 17.7919 121.45 17.7067 121.279 17.613C121.109 17.5161 120.841 17.3907 120.477 17.2369C120.126 17.0898 119.836 16.941 119.609 16.7905C119.385 16.6401 119.218 16.4629 119.107 16.2589C119 16.0516 118.947 15.7892 118.947 15.4715C118.947 14.9533 119.148 14.5637 119.549 14.303C119.953 14.0388 120.493 13.9067 121.169 13.9067C121.516 13.9067 121.847 13.9419 122.162 14.0121C122.479 14.0823 122.805 14.1943 123.14 14.3481L122.678 15.4515C122.401 15.3311 122.138 15.2325 121.891 15.1556C121.647 15.0787 121.398 15.0402 121.144 15.0402C120.92 15.0402 120.751 15.0703 120.637 15.1305C120.523 15.1907 120.467 15.2826 120.467 15.4063C120.467 15.4966 120.495 15.5768 120.552 15.6471C120.612 15.7173 120.726 15.7958 120.893 15.8828C121.063 15.9664 121.312 16.075 121.64 16.2088C121.958 16.3392 122.234 16.4762 122.468 16.62C122.702 16.7604 122.882 16.936 123.009 17.1466C123.136 17.3539 123.2 17.6231 123.2 17.9541Z" fill="white"/>
<path d="M129.668 14.0121V19.6192H128.494L128.288 18.902H128.208C128.088 19.0926 127.937 19.248 127.757 19.3684C127.576 19.4888 127.377 19.5774 127.16 19.6342C126.943 19.6911 126.717 19.7195 126.483 19.7195C126.082 19.7195 125.732 19.6493 125.435 19.5088C125.137 19.3651 124.905 19.1427 124.738 18.8418C124.574 18.5409 124.492 18.1497 124.492 17.6682V14.0121H126.022V17.2871C126.022 17.6883 126.093 17.9909 126.237 18.1948C126.381 18.3988 126.61 18.5008 126.924 18.5008C127.235 18.5008 127.479 18.4305 127.656 18.2901C127.834 18.1463 127.957 17.9374 128.028 17.6632C128.101 17.3857 128.138 17.048 128.138 16.6501V14.0121H129.668Z" fill="white"/>
<path d="M134.53 13.9067C134.607 13.9067 134.696 13.9118 134.796 13.9218C134.9 13.9285 134.984 13.9385 135.047 13.9519L134.932 15.3863C134.882 15.3695 134.81 15.3578 134.716 15.3512C134.626 15.3411 134.547 15.3361 134.48 15.3361C134.283 15.3361 134.091 15.3612 133.904 15.4113C133.72 15.4615 133.554 15.5434 133.407 15.6571C133.26 15.7674 133.143 15.9145 133.056 16.0984C132.972 16.279 132.931 16.5013 132.931 16.7655V19.6192H131.401V14.0121H132.559L132.785 14.9549H132.86C132.971 14.7644 133.108 14.5905 133.272 14.4334C133.439 14.2729 133.628 14.1458 133.838 14.0522C134.052 13.9552 134.283 13.9067 134.53 13.9067Z" fill="white"/>
<path d="M74.9636 42.9201H66.5839L64.5716 48.3068H61.0222L68.9594 28.3773H72.647L80.5841 48.3068H76.9743L74.9636 42.9201ZM67.4518 40.4344H74.0941L70.8197 31.6921H70.728L67.4518 40.4344Z" fill="white"/>
<path d="M97.7257 41.0421C97.7257 45.5574 95.0598 48.4584 91.0367 48.4584C90.0176 48.5068 89.0041 48.294 88.1122 47.8444C87.2204 47.3948 86.4862 46.7266 85.9937 45.9163H85.9176V53.1132H82.6276V33.7762H85.8122V36.1929H85.8727C86.3878 35.3865 87.1344 34.7218 88.033 34.2694C88.9317 33.8171 89.9489 33.5941 90.9762 33.6241C95.0441 33.6242 97.7257 36.5393 97.7257 41.0421ZM94.344 41.0421C94.344 38.1003 92.667 36.1663 90.1083 36.1663C87.5946 36.1663 85.9038 38.141 85.9038 41.0421C85.9038 43.9698 87.5946 45.9304 90.1083 45.9304C92.667 45.9304 94.344 44.0105 94.344 41.0421Z" fill="white"/>
<path d="M115.367 41.0421C115.367 45.5574 112.701 48.4584 108.678 48.4584C107.659 48.5068 106.645 48.2939 105.753 47.8443C104.861 47.3948 104.127 46.7266 103.635 45.9163H103.559V53.1132H100.269V33.7762H103.453V36.1929H103.514C104.029 35.3865 104.775 34.7218 105.674 34.2694C106.573 33.8171 107.59 33.5941 108.617 33.6241C112.685 33.6241 115.367 36.5393 115.367 41.0421ZM111.985 41.0421C111.985 38.1003 110.308 36.1663 107.749 36.1663C105.236 36.1663 103.545 38.141 103.545 41.0421C103.545 43.9697 105.236 45.9304 107.749 45.9304C110.308 45.9304 111.985 44.0105 111.985 41.0421H111.985Z" fill="white"/>
<path d="M127.026 42.754C127.27 44.7304 129.388 46.028 132.282 46.028C135.055 46.028 137.05 44.7303 137.05 42.9483C137.05 41.4014 135.847 40.4752 132.998 39.8404L130.148 39.2182C126.112 38.3342 124.237 36.6228 124.237 33.8455C124.237 30.4069 127.543 28.045 132.237 28.045C136.882 28.045 140.067 30.4069 140.174 33.8455H136.853C136.654 31.8567 134.84 30.6561 132.19 30.6561C129.54 30.6561 127.726 31.8708 127.726 33.6387C127.726 35.0477 128.885 35.8767 131.718 36.5114L134.14 37.0506C138.651 38.0176 140.525 39.6601 140.525 42.5752C140.525 46.3038 137.249 48.639 132.038 48.639C127.163 48.639 123.871 46.3586 123.658 42.7539L127.026 42.754Z" fill="white"/>
<path d="M147.625 30.339V33.7776H150.673V36.1395H147.625V44.1499C147.625 45.3943 148.236 45.9742 149.575 45.9742C149.937 45.9685 150.299 45.9454 150.658 45.9052V48.2529C150.055 48.355 149.443 48.4012 148.83 48.3909C145.585 48.3909 144.32 47.2859 144.32 44.468V36.1395H141.989V33.7776H144.32V30.339H147.625Z" fill="white"/>
<path d="M152.439 41.0438C152.439 36.472 155.409 33.5992 160.04 33.5992C164.687 33.5992 167.644 36.4719 167.644 41.0438C167.644 45.6281 164.703 48.4883 160.04 48.4883C155.379 48.4883 152.439 45.628 152.439 41.0438ZM164.292 41.0438C164.292 37.9076 162.706 36.0567 160.04 36.0567C157.374 36.0567 155.791 37.9217 155.791 41.0438C155.791 44.1924 157.374 46.0293 160.04 46.0293C162.706 46.0293 164.291 44.1924 164.291 41.0438H164.292Z" fill="white"/>
<path d="M170.356 33.776H173.494V36.2492H173.57C173.783 35.4768 174.282 34.7942 174.984 34.3161C175.686 33.838 176.548 33.5936 177.426 33.624C177.805 33.6228 178.183 33.6601 178.553 33.7353V36.525C178.074 36.3924 177.575 36.3316 177.075 36.3448C176.597 36.3272 176.12 36.4036 175.678 36.5687C175.235 36.7339 174.838 36.9838 174.512 37.3014C174.186 37.619 173.94 37.9967 173.791 38.4086C173.641 38.8206 173.592 39.2569 173.646 39.6878V48.3063H170.356L170.356 33.776Z" fill="white"/>
<path d="M193.722 44.0404C193.279 46.6781 190.445 48.4883 186.82 48.4883C182.157 48.4883 179.263 45.6563 179.263 41.1127C179.263 36.5551 182.173 33.5992 186.682 33.5992C191.116 33.5992 193.905 36.3607 193.905 40.7663V41.7882H182.584V41.9684C182.532 42.5032 182.606 43.0419 182.801 43.5488C182.996 44.0557 183.308 44.5192 183.716 44.9084C184.123 45.2977 184.618 45.6038 185.166 45.8065C185.715 46.0092 186.304 46.1039 186.896 46.0841C187.674 46.1502 188.454 45.9869 189.121 45.6187C189.788 45.2505 190.306 44.6969 190.598 44.0404L193.722 44.0404ZM182.6 39.7037H190.613C190.643 39.2229 190.562 38.7418 190.377 38.2904C190.192 37.8391 189.905 37.4274 189.536 37.0811C189.167 36.7348 188.723 36.4615 188.232 36.2782C187.74 36.0949 187.213 36.0056 186.682 36.0159C186.146 36.013 185.615 36.1063 185.119 36.2905C184.623 36.4746 184.173 36.746 183.793 37.0888C183.414 37.4317 183.113 37.8393 182.908 38.2881C182.703 38.7369 182.598 39.218 182.6 39.7037V39.7037Z" fill="white"/>
</svg>
