<svg width="1061" height="1061" viewBox="0 0 1061 1061" fill="none" xmlns="http://www.w3.org/2000/svg">
<path fill-rule="evenodd" clip-rule="evenodd" d="M496.617 444.294C496.446 444.356 496.258 444.268 496.196 444.098L470.086 372.358C469.818 371.596 469.352 370.327 468.686 368.552C468.616 368.365 468.708 368.156 468.893 368.081V368.081C469.086 368.003 469.305 368.101 469.376 368.296L470.767 372.111C477.439 390.672 481.662 402.392 483.438 407.27C484.658 410.625 490.61 426.964 496.813 443.872C496.875 444.042 496.788 444.232 496.617 444.294V444.294ZM509.793 440.817C509.611 440.848 509.438 440.722 509.413 440.539L508.115 431.296C508.09 431.12 508.213 430.958 508.388 430.933V430.933C508.563 430.909 508.726 431.031 508.75 431.206C509.178 434.223 509.62 437.326 510.063 440.447C510.088 440.623 509.968 440.787 509.793 440.817V440.817ZM527.797 439.811C527.615 439.8 527.476 439.642 527.489 439.46L527.827 434.625C527.839 434.448 527.991 434.314 528.168 434.323V434.323C528.349 434.333 528.487 434.489 528.475 434.669C528.365 436.271 528.253 437.887 528.144 439.505C528.132 439.685 527.977 439.821 527.797 439.811V439.811ZM580.816 464.963C580.639 464.768 580.657 464.468 580.857 464.297L584.117 461.502C584.31 461.336 584.601 461.358 584.768 461.551V461.551C584.936 461.744 584.914 462.037 584.721 462.204L581.475 465.009C581.282 465.175 580.988 465.151 580.816 464.963V464.963ZM596.088 489.325C596.088 489.327 596.09 489.329 596.093 489.328L599.873 487.962L629.597 477.193C629.841 477.104 630.113 477.222 630.214 477.462V477.462C630.324 477.721 630.193 478.019 629.929 478.114C616.65 482.918 604.577 487.298 596.589 490.158C596.51 490.186 596.425 490.148 596.393 490.071C596.289 489.822 596.193 489.572 596.094 489.324C596.093 489.321 596.088 489.322 596.088 489.325V489.325ZM599.591 535.355C599.591 535.356 599.592 535.356 599.592 535.357L625.763 541.451L691.468 556.761C691.753 556.827 691.913 557.13 691.808 557.403V557.403C691.722 557.627 691.484 557.754 691.25 557.699C652.903 548.777 611.719 539.181 609.069 538.501C607.833 538.184 604.242 537.327 599.482 536.208C599.434 536.197 599.404 536.149 599.416 536.101C599.475 535.846 599.532 535.601 599.589 535.355C599.589 535.353 599.591 535.354 599.591 535.355V535.355ZM594.784 549.843C594.784 549.845 594.785 549.847 594.787 549.847L596.267 550.531C596.471 550.625 596.567 550.862 596.487 551.072V551.072C596.398 551.305 596.13 551.413 595.904 551.307L594.572 550.678C594.495 550.642 594.46 550.552 594.493 550.473C594.585 550.257 594.676 550.053 594.775 549.841C594.777 549.836 594.784 549.838 594.784 549.843V549.843ZM585.506 565.491C585.506 565.494 585.507 565.496 585.509 565.497L588.765 567.96C588.962 568.108 588.996 568.39 588.841 568.581V568.581C588.693 568.764 588.426 568.795 588.239 568.653C587.32 567.954 586.284 567.174 585.154 566.305C585.058 566.232 585.039 566.095 585.111 565.998C585.24 565.822 585.368 565.652 585.493 565.487C585.497 565.481 585.506 565.484 585.506 565.491V565.491ZM563.515 585.202C563.674 585.107 563.88 585.156 563.978 585.313L570.983 596.498C571.083 596.658 571.033 596.869 570.871 596.967V596.967C570.713 597.062 570.508 597.013 570.41 596.856C568.295 593.47 565.742 589.4 563.402 585.674C563.301 585.513 563.352 585.3 563.515 585.202V585.202ZM550.321 591.541C550.498 591.476 550.693 591.567 550.758 591.744C556.254 606.834 561.928 622.331 561.943 622.372C561.944 622.373 561.943 622.373 561.944 622.374L577.961 666.237C578.033 666.434 577.934 666.652 577.738 666.726V666.726C577.538 666.802 577.315 666.702 577.242 666.501C568.261 641.945 558.143 614.241 557.562 612.498C556.939 610.633 553.228 600.467 550.118 591.976C550.054 591.8 550.145 591.605 550.321 591.541V591.541ZM531.687 595.886C531.869 595.867 532.033 595.995 532.059 596.176L532.451 598.95C532.477 599.137 532.345 599.309 532.157 599.332V599.332C531.975 599.354 531.809 599.226 531.783 599.045C531.649 598.11 531.516 597.183 531.388 596.27C531.361 596.081 531.497 595.907 531.687 595.886V595.886ZM502.988 593.72C503.206 593.78 503.338 594.001 503.286 594.221C502.158 599.052 501.091 603.635 500.136 607.731C500.081 607.967 499.848 608.116 499.611 608.066V608.066C499.364 608.015 499.209 607.77 499.268 607.525C499.911 604.881 501.086 599.896 502.469 594.03C502.523 593.798 502.759 593.658 502.988 593.72V593.72ZM473.386 578.486C473.548 578.627 473.572 578.871 473.443 579.042C462.473 593.543 453.463 605.456 453.452 605.47C453.452 605.471 453.452 605.47 453.452 605.47C453.441 605.484 419.674 650.099 396.661 680.524C396.502 680.734 396.204 680.768 395.998 680.604V680.604C395.797 680.446 395.757 680.16 395.911 679.956C422.47 644.831 460.849 594.057 462.973 591.411C464.082 590.009 468.018 584.839 472.791 578.548C472.934 578.36 473.207 578.331 473.386 578.486V578.486ZM462.625 567.724C462.624 567.724 462.623 567.725 462.622 567.725C449.284 579.265 438.494 588.606 438.493 588.607C438.493 588.607 438.493 588.607 438.493 588.607L403.309 619.067C403.105 619.244 402.795 619.22 402.621 619.014V619.014C402.449 618.811 402.474 618.507 402.675 618.333C426.989 597.277 448.956 578.269 450.69 576.836C451.981 575.768 456.388 571.978 461.863 567.227C461.983 567.123 462.167 567.142 462.265 567.268C462.387 567.424 462.507 567.571 462.629 567.716C462.632 567.719 462.629 567.724 462.625 567.724V567.724ZM449.03 543.381C449.029 543.381 449.028 543.381 449.027 543.382C427.125 551.261 390.724 564.451 390.643 564.481C390.64 564.482 390.641 564.481 390.639 564.482L317.545 590.835C317.343 590.908 317.121 590.802 317.051 590.599V590.599C316.982 590.401 317.084 590.185 317.281 590.112L317.353 590.085C326.968 586.616 417.82 553.699 420.372 552.778L448.366 542.624C448.569 542.55 448.793 542.656 448.863 542.86C448.921 543.032 448.979 543.203 449.037 543.37C449.039 543.376 449.035 543.381 449.03 543.381V543.381ZM445.363 527.216C429.811 529.325 405.269 532.737 391.442 534.654C391.204 534.687 390.993 534.518 390.963 534.281V534.281C390.934 534.048 391.098 533.834 391.331 533.802L412.607 530.847L444.825 526.352C445.066 526.319 445.289 526.487 445.319 526.728C445.339 526.884 445.357 527.042 445.375 527.204C445.375 527.21 445.37 527.216 445.363 527.216V527.216ZM446.774 500.585C446.774 500.585 446.774 500.585 446.773 500.585C431.742 497.049 406.488 491.159 388.59 486.988C388.359 486.934 388.218 486.707 388.267 486.475V486.475C388.317 486.236 388.554 486.085 388.792 486.141L404.979 489.909L446.476 499.545C446.763 499.611 446.945 499.894 446.878 500.181C446.847 500.314 446.814 500.448 446.779 500.581C446.779 500.583 446.777 500.585 446.774 500.585V500.585ZM452.755 483.648C452.64 483.876 452.375 483.976 452.143 483.867C428.154 472.572 380.419 450.206 380.367 450.181C380.366 450.181 380.367 450.181 380.365 450.18L292.902 409.086C292.719 409 292.635 408.785 292.71 408.597V408.597C292.792 408.393 293.029 408.3 293.228 408.394L297.246 410.287C308.272 415.453 412.207 464.13 415.122 465.502C416.213 466.014 432.471 473.615 452.532 483.007C452.773 483.12 452.875 483.411 452.755 483.648V483.648ZM460.347 471.202C460.19 471.412 459.892 471.454 459.682 471.296L452.48 465.826C452.283 465.676 452.239 465.397 452.38 465.194V465.194C452.53 464.978 452.829 464.931 453.039 465.089L460.254 470.542C460.461 470.699 460.503 470.994 460.347 471.202V471.202ZM326.057 685.578C325.999 685.63 325.994 685.719 326.044 685.779V685.779C326.095 685.839 326.091 685.929 326.031 685.981C304.103 704.966 265.566 738.318 258.324 744.586C248.317 753.233 161.523 828.243 154.845 834.009L101.597 880.029C101.414 880.187 101.133 880.145 101.004 879.941V879.941C100.9 879.775 100.905 879.581 101.054 879.454C104.572 876.425 147.203 839.734 152.437 835.211C156.076 832.066 164.07 825.131 176.418 814.405C220.231 776.286 244.01 755.608 247.755 752.372C251.258 749.341 262.019 740.086 270.152 733.06C270.186 733.031 270.189 732.979 270.159 732.945V732.945C270.128 732.911 270.132 732.858 270.166 732.829L325.124 685.058C325.335 684.874 325.655 684.897 325.838 685.109L326.07 685.377C326.121 685.437 326.116 685.526 326.057 685.578V685.578ZM412.354 389.094C412.362 389.087 412.363 389.074 412.356 389.066L412.266 388.964C412.21 388.899 412.217 388.801 412.282 388.745L412.545 388.517C412.754 388.337 413.07 388.359 413.251 388.568L437.669 416.654C437.851 416.864 437.829 417.182 437.62 417.364L437.534 417.439C437.372 417.58 437.126 417.563 436.985 417.401L436.764 417.147C436.742 417.122 436.705 417.12 436.68 417.142V417.142C436.655 417.165 436.617 417.162 436.596 417.137L419.264 397.119L412.352 389.122C412.345 389.113 412.346 389.101 412.354 389.094V389.094ZM654.734 401.483L645.056 409.87L613.6 437.212C613.39 437.394 613.073 437.372 612.89 437.162V437.162C612.708 436.953 612.73 436.635 612.94 436.452L653.939 400.825C654.152 400.64 654.475 400.662 654.661 400.875L654.76 400.989C654.886 401.134 654.874 401.352 654.734 401.483V401.483ZM330.231 501.918C330.013 501.902 329.848 501.712 329.864 501.493V501.493C329.879 501.274 330.069 501.109 330.288 501.125L395.122 505.754C395.357 505.771 395.534 505.975 395.518 506.21V506.21C395.501 506.445 395.297 506.623 395.061 506.606L382.145 505.682L330.231 501.918ZM228.54 494.158C228.523 494.427 228.292 494.631 228.023 494.614V494.614C181.365 491.418 155.805 489.634 151.341 489.261C144.642 488.695 93.8591 485.068 89.4951 484.753C86.6282 484.543 78.9569 483.95 66.4809 482.975C66.1645 482.95 65.9357 482.657 65.9938 482.344V482.344C66.0435 482.078 66.2911 481.891 66.5619 481.91C107.051 484.767 130.842 486.461 137.934 486.99L228.048 493.544C228.341 493.566 228.562 493.819 228.543 494.112L228.54 494.158ZM714.957 529.317C714.923 529.564 714.722 529.743 714.473 529.725C702.423 528.844 664.393 526.155 633.514 523.938C633.232 523.918 633.028 523.663 633.068 523.382V523.382C633.103 523.127 633.331 522.943 633.587 522.962L712.468 528.636L714.523 528.783C714.795 528.802 714.994 529.047 714.957 529.317V529.317ZM752.094 532.497V532.497C752.173 531.933 752.674 531.527 753.242 531.568C775.126 533.141 798.775 534.839 804.521 535.258L919.346 543.637L978.373 547.942C978.613 547.96 978.748 548.379 978.703 548.616V548.616C978.665 548.817 978.553 548.763 978.349 548.748C973.996 548.421 927.251 544.915 921.498 544.476L894.836 542.597C846.062 539.233 819.59 537.409 815.419 537.125C809.184 536.673 782.331 534.632 779.82 534.53C778.628 534.461 765.825 533.529 752.115 532.52C752.103 532.519 752.094 532.509 752.094 532.497V532.497ZM514.155 636.76C513.932 636.76 513.756 636.569 513.771 636.346C514.498 625.84 515.023 618.32 515.115 617.424C515.266 615.865 515.77 608.725 516.274 601.332C516.286 601.154 516.434 601.017 516.611 601.017V601.017C516.807 601.017 516.962 601.183 516.948 601.379C515.978 615.395 515.103 628.196 515.102 628.211C515.102 628.211 515.102 628.21 515.102 628.211C515.101 628.226 514.886 631.363 514.539 636.4C514.525 636.602 514.357 636.76 514.155 636.76V636.76ZM-nan -nanL510.704 681.192V681.644C510.704 681.837 510.861 681.994 511.054 681.994V681.994C511.257 681.994 511.417 682.167 511.403 682.369C510.379 697.225 509.527 709.593 509.456 710.598C509.272 713.219 505.194 772.304 504.618 780.768C504.043 789.231 498.895 862.665 498.499 868.312C498.235 872.064 497.186 887.072 495.35 913.336C495.338 913.511 495.186 913.646 495.011 913.633V913.633C494.838 913.62 494.706 913.494 494.718 913.32C494.976 909.753 497.535 874.394 497.842 870.012C498.055 866.93 498.513 860.155 499.215 849.688C501.667 812.518 503.002 792.345 503.221 789.172C503.553 784.416 505.049 763.938 505.117 762.029C505.185 760.12 508.049 720.089 508.416 714.898C508.531 712.917 509.515 698.423 510.704 681.192L-nan -nanL-nan -nanZM530.202 405.214C530.028 405.211 529.892 405.062 529.904 404.889L531.913 376.131C531.926 375.948 532.083 375.809 532.266 375.818V375.818C532.454 375.828 532.598 375.993 532.584 376.182C531.706 388.077 531.134 395.956 530.867 399.816C530.801 400.715 530.68 402.489 530.512 404.931C530.5 405.093 530.364 405.218 530.202 405.214V405.214ZM534.292 346.739C534.064 346.723 533.891 346.527 533.905 346.298C534 344.763 534.101 343.125 534.208 341.384C536.537 305.833 537.842 286.352 538.12 282.943C538.546 277.829 541.184 239.12 541.419 235.791C541.57 233.607 542.004 227.747 542.72 218.211C542.738 217.977 542.941 217.798 543.176 217.813V217.813C543.413 217.828 543.592 218.038 543.576 218.274C541.497 249.093 540.269 267.205 539.893 272.612L534.735 346.353C534.719 346.581 534.521 346.754 534.292 346.739V346.739ZM-nan -nanL757.344 311.68L757.651 312.033C757.82 312.229 757.799 312.524 757.603 312.694L752.49 317.113C729.192 337.124 714.477 349.775 708.342 355.068C705.561 357.47 695.678 366.011 683.176 376.857C683.01 377 682.758 376.984 682.614 376.818V376.818C682.471 376.652 682.489 376.401 682.655 376.258L751.991 316.368C753.025 315.464 754.81 313.901 757.344 311.68L-nan -nanL-nan -nanZM785.745 287.635C785.544 287.399 785.576 287.04 785.81 286.837C822.043 255.314 842.041 237.958 845.805 234.768C851.895 229.607 897.602 190.02 901.536 186.611C904.126 184.368 911.088 178.391 922.422 168.68C922.664 168.473 923.037 168.523 923.211 168.791V168.791C923.355 169.012 923.31 169.308 923.111 169.481C886.642 201.116 865.211 219.704 858.816 225.243L786.547 287.697C786.309 287.902 785.949 287.875 785.745 287.635V287.635ZM631.971 642.339C632.174 642.162 632.482 642.184 632.658 642.388L677.313 693.969C679.989 697.067 740.412 766.845 749.063 776.86L838.488 880.343L884.503 933.59C884.662 933.773 884.619 934.054 884.415 934.183V934.183C884.249 934.287 884.055 934.282 883.928 934.134C880.899 930.617 844.205 888.014 839.711 882.781C836.565 879.141 829.63 871.146 818.905 858.796C780.782 814.974 760.096 791.19 756.845 787.446C751.991 781.825 731.134 757.571 729.144 755.363C727.154 753.156 686.301 705.787 680.986 699.654C678.394 696.651 655.26 669.962 631.923 643.024C631.748 642.822 631.769 642.516 631.971 642.339V642.339ZM360.344 328.349C360.183 328.489 359.938 328.471 359.798 328.31L320.844 283.216C318.409 280.403 311.164 272.114 299.109 258.348C262.64 216.442 242.68 193.459 239.231 189.402C234.083 183.312 194.483 137.601 191.074 133.667C188.831 131.08 182.855 124.12 173.145 112.788C172.936 112.545 172.988 112.17 173.257 111.995V111.995C173.478 111.852 173.775 111.898 173.948 112.097C205.598 148.574 224.188 170.005 229.719 176.391L321.602 282.7C341.615 305.997 354.267 320.713 359.557 326.847L360.384 327.804C360.523 327.965 360.505 328.209 360.344 328.349V328.349ZM221.497 625.131C221.604 625.44 221.437 625.78 221.13 625.892C192.485 636.347 176.477 642.161 173.106 643.336C166.756 645.543 118.888 662.884 114.771 664.367C112.07 665.341 104.821 667.921 93.0271 672.107C92.7287 672.213 92.4007 672.039 92.3263 671.731V671.731C92.2624 671.467 92.4124 671.195 92.6679 671.102C130.816 657.241 153.236 649.103 159.929 646.69L220.728 624.764C221.042 624.651 221.387 624.816 221.497 625.131V625.131ZM706.101 450.52C705.871 450.603 705.616 450.493 705.518 450.269V450.269C705.411 450.023 705.509 449.747 705.761 449.656C721.781 443.882 779.323 423.042 788.527 419.723L896.818 380.651L952.493 360.577C952.719 360.496 952.965 360.628 953.021 360.861V360.861C953.07 361.062 952.992 361.255 952.798 361.324C948.672 362.801 904.571 378.583 899.128 380.545C895.315 381.917 886.945 384.959 874.018 389.669C828.085 406.432 803.153 415.524 799.224 416.944C793.343 419.075 767.981 428.119 765.646 429.048C763.31 429.977 713.759 447.757 707.337 450.075L706.101 450.52ZM593.253 709.219C593.448 709.145 593.663 709.237 593.735 709.434C599.886 726.276 612.17 759.906 614.375 765.971C617.278 773.945 642.456 843.108 644.391 848.435L659.829 890.848C659.889 891.013 659.804 891.195 659.64 891.255V891.255C659.475 891.315 659.301 891.252 659.241 891.087C658.021 887.708 645.985 854.381 644.48 850.255C643.429 847.354 641.092 840.979 637.47 831.128C624.585 796.182 617.601 777.213 616.519 774.222C614.887 769.743 607.927 750.428 607.211 748.651C606.629 747.199 597.334 721.572 593.028 709.69C592.958 709.497 593.06 709.291 593.253 709.219V709.219ZM447.783 310.444C447.514 310.549 447.212 310.411 447.112 310.141C444.543 303.131 443.012 298.929 442.521 297.535C440.816 292.694 427.498 256.252 426.356 253.119C425.608 251.061 423.621 245.528 420.395 236.521C420.317 236.303 420.429 236.06 420.647 235.981V235.981C420.865 235.902 421.108 236.018 421.187 236.236C431.827 265.246 438.073 282.297 439.925 287.388L448.077 309.79C448.172 310.052 448.042 310.342 447.783 310.444V310.444ZM-nan -nanL453.942 661.742L454.384 661.956C454.626 662.074 454.728 662.364 454.614 662.607L421.208 733.808C419.469 737.511 380.295 821.101 374.665 833.072C369.035 845.043 320.256 948.867 316.505 956.854L286.569 1020.56C286.468 1020.78 286.201 1020.85 286.001 1020.73V1020.73C285.832 1020.62 285.754 1020.44 285.839 1020.26C287.845 1016.01 311.831 965.206 314.779 958.95C316.825 954.598 321.308 945.01 328.229 930.188C352.768 877.539 366.091 848.969 368.196 844.48C371.354 837.76 385.03 808.84 386.227 806.125C387.425 803.41 414.091 746.802 417.543 739.463C419.401 735.504 437.402 697.055 453.942 661.742L-nan -nanL-nan -nanZM587.473 377.306C587.505 377.25 587.577 377.229 587.634 377.261L587.925 377.424C588.133 377.54 588.215 377.797 588.115 378.012L572.154 412.086C571.865 412.697 569.384 418.007 565.614 426.063C565.505 426.296 565.221 426.392 564.994 426.27V426.27C564.784 426.157 564.698 425.9 564.8 425.685C575.597 402.675 587.432 377.394 587.471 377.31C587.472 377.308 587.472 377.309 587.473 377.306V377.306ZM603.716 343.663C603.523 343.561 603.445 343.325 603.537 343.128L651.491 241.071C653.073 237.705 657.702 227.721 665.376 211.12C688.824 160.755 701.701 133.176 704.008 128.383C707.473 121.189 733.124 66.4175 735.336 61.7125C736.791 58.6292 740.72 50.3411 747.122 36.8485C747.26 36.558 747.624 36.452 747.893 36.6277V36.6277C748.115 36.7721 748.194 37.0623 748.082 37.3018C727.64 81.0287 715.62 106.724 712.02 114.387C708.409 122.076 688.49 164.471 652.262 241.574C639.105 269.335 630.807 286.879 627.369 294.207C625.178 298.868 615.182 320.199 604.279 343.474C604.18 343.686 603.923 343.773 603.716 343.663V343.663ZM220.261 374.493C220.148 374.767 219.829 374.892 219.559 374.768L214.172 372.277C163.807 348.832 136.228 335.954 131.435 333.645C124.241 330.18 69.4691 304.529 64.7642 302.321C61.6805 300.866 53.3913 296.936 39.8964 290.53C39.6077 290.392 39.5022 290.031 39.6765 289.763V289.763C39.82 289.542 40.1089 289.463 40.3474 289.575C84.0925 310.005 109.791 322.024 117.444 325.633L220 373.822C220.252 373.94 220.367 374.235 220.261 374.493V374.493ZM755.164 625.509C755.059 625.764 754.761 625.879 754.512 625.761L742.543 620.113C738.752 618.331 703.311 601.746 669.298 585.809C669.069 585.702 668.961 585.436 669.051 585.199V585.199C669.151 584.936 669.454 584.813 669.709 584.933L736.888 616.427L754.923 624.887C755.157 624.996 755.263 625.27 755.164 625.509V625.509ZM827.551 660.033C827.55 660.033 827.548 660.031 827.549 660.03L827.751 659.503C827.832 659.292 828.076 659.194 828.281 659.29C831.865 660.971 834.586 662.244 836.122 662.948L959.909 721.108L1023.62 751.045C1023.83 751.145 1023.8 751.577 1023.68 751.777V751.777C1023.57 751.946 1023.49 751.858 1023.31 751.773C1019.05 749.76 968.26 725.781 962.006 722.834C957.653 720.788 948.065 716.306 933.243 709.388C880.594 684.858 852.028 671.54 847.548 669.434C844.271 667.921 835.752 663.899 827.552 660.033C827.552 660.033 827.552 660.033 827.551 660.033V660.033ZM290.324 548.169C290.351 548.385 290.199 548.583 289.983 548.613L255.532 553.349C252.43 553.775 243.26 555.094 228.023 557.304C181.712 563.873 156.338 567.436 151.9 567.993C145.23 568.845 94.7924 575.843 90.471 576.439C87.6267 576.828 80.0006 577.844 67.5927 579.488C67.2767 579.53 66.9907 579.289 66.9831 578.971V578.971C66.9766 578.699 67.1804 578.464 67.4499 578.427C107.64 572.805 131.261 569.507 138.313 568.534L255.511 552.424C269.97 550.494 281.426 548.961 289.878 547.824C290.098 547.794 290.296 547.95 290.324 548.169V548.169ZM753.094 484.27C753.128 484.547 752.935 484.8 752.658 484.838C736.961 486.988 718.513 489.497 714.675 490.024C712.137 490.375 693.865 492.918 671.955 495.961C671.687 495.998 671.439 495.809 671.407 495.541V495.541C671.376 495.28 671.559 495.041 671.82 495.005L708.969 489.862L752.517 483.827C752.8 483.787 753.059 483.987 753.094 484.27V484.27ZM828.379 474.344C828.107 474.382 827.857 474.19 827.824 473.917V473.917C827.791 473.651 827.978 473.408 828.244 473.372L914.449 461.505L973.085 453.468C973.318 453.436 973.527 453.816 973.537 454.051V454.051C973.546 454.256 973.421 454.234 973.217 454.262C968.854 454.851 922.459 461.113 916.729 461.888C912.72 462.442 903.897 463.677 890.259 465.592L828.379 474.344ZM499.885 370.176C499.689 370.202 499.508 370.065 499.48 369.868L498.754 364.683C498.422 362.319 497.395 355.337 495.673 343.736C490.559 308.478 487.783 289.158 487.346 285.777C486.694 280.688 481.234 242.273 480.77 238.97C480.462 236.804 479.669 230.981 478.39 221.502C478.358 221.265 478.524 221.045 478.76 221.013V221.013C478.995 220.982 479.212 221.15 479.246 221.385C483.618 251.956 486.183 269.927 486.941 275.297C487.702 280.693 491.884 310.457 499.487 364.589C499.734 366.377 499.97 368.104 500.197 369.769C500.224 369.968 500.084 370.15 499.885 370.176V370.176ZM-nan -nanL538.094 644.201L538.482 644.153C538.693 644.128 538.884 644.268 538.914 644.479C542.213 667.775 547.94 708.205 548.199 710.053C548.566 712.653 556.88 771.29 558.061 779.698C559.241 788.106 569.486 860.995 570.275 866.599C570.798 870.32 572.892 885.218 576.555 911.293C576.579 911.467 576.458 911.63 576.285 911.654V911.654C576.112 911.677 575.957 911.581 575.933 911.408C575.444 907.866 570.596 872.747 569.985 868.397C569.556 865.343 568.594 858.622 567.1 848.235C561.77 811.365 558.883 791.358 558.44 788.213C557.775 783.495 554.984 763.15 554.651 761.27C554.319 759.391 548.8 719.637 548.08 714.485C547.602 711.093 541.985 671.685 538.094 644.201L-nan -nanL-nan -nanZM334.71 761.641C334.91 761.786 334.951 762.068 334.802 762.265C323.149 777.662 312.765 791.381 309.648 795.492L227.021 904.485L184.502 960.563C184.356 960.756 184.072 960.775 183.901 960.604V960.604C183.759 960.462 183.722 960.267 183.843 960.108C186.689 956.37 220.726 911.664 224.899 906.156C227.806 902.323 234.184 893.878 244.034 880.82C278.981 834.418 297.945 809.246 300.929 805.302C305.416 799.387 324.794 773.945 326.546 771.515C327.143 770.663 331.98 764.271 338.274 755.986L334.613 761.024C334.469 761.221 334.513 761.497 334.71 761.641V761.641ZM596.867 415.411C596.666 415.265 596.624 414.984 596.774 414.786L612.56 393.931L645.72 350.195C645.838 350.039 646.052 349.992 646.225 350.084V350.084C646.441 350.199 646.503 350.481 646.355 350.676L597.479 415.32C597.334 415.512 597.062 415.552 596.867 415.411V415.411ZM669.072 320.113C668.866 320.004 668.807 319.736 668.947 319.55L703.488 273.985C705.739 271.019 712.341 262.211 723.297 247.562C756.706 203.172 775.032 178.872 778.273 174.661C783.157 168.345 819.612 120.111 822.774 115.964C824.84 113.24 830.408 105.949 839.477 94.0914C839.671 93.8371 840.048 93.8094 840.274 94.0365V94.0365C840.459 94.223 840.476 94.5219 840.318 94.7318C811.224 133.263 794.128 155.9 789.03 162.643L704.136 274.637C686.337 297.957 674.807 313.082 669.546 320.013C669.434 320.16 669.236 320.199 669.072 320.113V320.113ZM748.916 689.129C749.143 689.3 749.183 689.626 749.003 689.847V689.847C748.832 690.057 748.527 690.094 748.311 689.931C733.707 678.849 717.252 666.334 713.721 663.668C711.252 661.796 693.546 648.413 672.375 632.402C672.158 632.239 672.119 631.927 672.29 631.716V631.716C672.453 631.515 672.746 631.48 672.952 631.636L708.956 658.887C710.569 660.105 729.16 674.18 748.916 689.129ZM832.474 752.984C832.63 752.788 832.915 752.753 833.115 752.904L905.341 807.676L961.427 850.196C961.62 850.342 961.639 850.625 961.467 850.795V850.795C961.326 850.935 961.133 850.972 960.975 850.851C957.252 848.015 912.547 813.956 907.046 809.794C903.213 806.893 894.767 800.516 881.706 790.663L832.557 753.643C832.348 753.486 832.311 753.188 832.474 752.984V752.984ZM409.47 432.672C409.331 432.875 409.051 432.921 408.855 432.772L394.827 422.156L292.139 344.313C291.959 344.176 291.919 343.923 292.048 343.738V343.738C292.185 343.542 292.46 343.501 292.65 343.646C307.316 354.83 317.039 362.236 321.82 365.863C329.049 371.323 382.012 411.389 409.382 432.092C409.565 432.231 409.599 432.482 409.47 432.672V432.672ZM228.252 295.436C228.061 295.708 227.678 295.763 227.414 295.564C196.33 272.16 179.043 259.109 175.552 256.409C169.236 251.525 121.002 215.071 116.855 211.908C114.131 209.84 106.84 204.272 94.9825 195.206C94.7282 195.012 94.7005 194.635 94.9276 194.409V194.409C95.1141 194.224 95.4129 194.207 95.6228 194.365C134.154 223.459 156.79 240.555 163.53 245.653L228.126 294.632C228.378 294.823 228.433 295.178 228.252 295.436V295.436ZM268.993 674.337C268.995 674.34 268.999 674.337 268.997 674.334L268.488 673.515C268.455 673.462 268.472 673.392 268.525 673.359L293.547 657.83C315.572 644.277 329.479 635.704 335.27 632.11C340.138 629.087 368.039 611.713 392.017 596.775C392.216 596.65 392.478 596.712 392.603 596.912V596.912C392.727 597.112 392.666 597.376 392.466 597.5L293.931 658.644C291.269 660.297 283.427 665.232 270.406 673.449L268.994 674.334C268.992 674.335 268.992 674.336 268.993 674.337V674.337ZM182.459 727.512C182.645 727.809 182.556 728.2 182.258 728.385C168.969 736.642 154.616 745.579 152.539 746.866C150.103 748.379 143.549 752.41 132.878 758.959C132.607 759.125 132.249 759.021 132.113 758.735V758.735C131.996 758.489 132.085 758.194 132.315 758.05C154.787 744.026 171.214 733.779 181.595 727.31C181.89 727.126 182.274 727.218 182.459 727.512V727.512ZM742.657 379.311C742.784 379.539 742.71 379.827 742.489 379.966C741.378 380.661 740.602 381.153 740.293 381.363C738.2 382.757 693.414 410.449 687.626 414.051C683.473 416.625 631.38 449.094 600.751 468.135C600.515 468.282 600.211 468.196 600.076 467.953V467.953C599.95 467.726 600.024 467.44 600.245 467.303L682.346 416.228L741.97 379.133C742.207 378.985 742.521 379.066 742.657 379.311V379.311ZM-nan -nanL774.549 360.089L774.295 359.63C774.16 359.385 774.24 359.078 774.478 358.931L858.535 306.774L908.819 275.561C909.023 275.434 909.292 275.514 909.395 275.731V275.731C909.482 275.916 909.446 276.119 909.272 276.227C905.563 278.516 865.688 303.135 860.768 306.186C857.327 308.32 849.768 313.036 838.091 320.335C804.347 341.456 783.166 354.707 774.549 360.089L-nan -nanL-nan -nanZM616.708 669.468C616.82 669.648 616.762 669.882 616.581 669.99V669.99C616.404 670.096 616.177 670.043 616.068 669.869C609.91 660.05 601.993 647.423 594.737 635.856C594.622 635.673 594.68 635.433 594.865 635.322V635.322C595.045 635.214 595.277 635.268 595.389 635.446C602.435 646.681 610.695 659.864 616.708 669.468ZM640.601 708.355C640.788 708.24 641.032 708.297 641.149 708.483C650.144 722.845 659.999 738.581 662.371 742.374L708.875 816.805L732.795 855.08C732.888 855.228 732.843 855.423 732.695 855.516V855.516C732.546 855.609 732.363 855.584 732.271 855.435C730.375 852.385 711.67 822.29 709.344 818.565C707.707 815.943 704.095 810.193 698.506 801.318C678.638 769.801 667.863 752.697 666.181 750.007C663.658 745.966 652.829 728.519 651.764 726.934C651.25 726.168 646.038 717.828 640.471 708.908C640.353 708.72 640.411 708.471 640.601 708.355V708.355ZM469.02 434.238C468.877 434.317 468.696 434.27 468.61 434.131L440.068 388.46C439.96 388.287 440.016 388.059 440.193 387.957V387.957C440.362 387.859 440.58 387.916 440.682 388.082C450.672 404.211 457.013 414.43 459.704 418.738C460.807 420.507 464.418 426.268 469.132 433.803C469.226 433.953 469.175 434.153 469.02 434.238V434.238ZM407.522 335.995C407.282 336.13 406.976 336.049 406.829 335.816C401.126 326.753 397.805 321.452 396.865 319.913C394.201 315.532 373.587 282.657 371.818 279.832C370.659 277.973 367.566 272.979 362.538 264.851C362.416 264.654 362.478 264.392 362.677 264.273V264.273C362.871 264.156 363.125 264.22 363.246 264.412C379.69 290.546 389.351 305.916 392.228 310.521L407.708 335.268C407.865 335.519 407.78 335.85 407.522 335.995V335.995ZM477.418 703.273C477.148 703.216 476.977 702.949 477.039 702.68C479.843 690.619 482.816 677.851 485.64 665.733C485.7 665.476 485.954 665.314 486.213 665.369V665.369C486.479 665.425 486.647 665.689 486.586 665.954L477.998 702.903C477.937 703.163 477.68 703.327 477.418 703.273V703.273ZM468.833 737.937C468.83 737.937 468.828 737.939 468.827 737.942L464.067 760.348C464.039 760.478 464.123 760.607 464.253 760.635V760.635C464.386 760.663 464.471 760.785 464.44 760.917C458.731 785.411 444.307 847.331 441.847 857.854C438.834 870.733 412.701 982.432 410.694 991.024C409.355 996.73 404.011 1019.57 394.66 1059.55C394.605 1059.78 394.354 1059.92 394.128 1059.84V1059.84C393.943 1059.76 393.83 1059.6 393.876 1059.41C394.952 1054.85 407.865 1000.15 409.437 993.419C410.533 988.734 412.924 978.425 416.609 962.492C429.659 905.893 436.747 875.183 437.875 870.362C439.58 863.117 446.932 832.006 447.532 829.079C448.133 826.151 462.449 765.281 464.307 757.384C464.707 755.722 466.381 748.45 468.839 737.945C468.84 737.941 468.837 737.937 468.833 737.937V737.937ZM552.996 377.464C552.995 377.464 552.995 377.465 552.996 377.466L553.766 377.6C553.805 377.607 553.83 377.646 553.821 377.684C550.271 392.956 547.692 404.037 547.47 404.99C547.298 405.718 545.69 412.657 543.305 422.938C543.251 423.17 543.025 423.322 542.791 423.282V423.282C542.536 423.238 542.371 422.99 542.43 422.738C546.279 406.296 550.489 388.227 552.997 377.465C552.998 377.464 552.997 377.464 552.996 377.464V377.464ZM568.433 313.291C568.2 313.251 568.049 313.024 568.103 312.793L589.546 221.242C590.399 217.619 592.851 206.89 596.902 189.053C609.364 134.918 616.225 105.263 617.486 100.089C619.383 92.333 633.084 33.4275 634.269 28.3688C635.046 25.0386 637.165 16.1133 640.627 1.59292C640.701 1.28136 641.034 1.10269 641.333 1.2181V1.2181C641.579 1.31301 641.716 1.57953 641.656 1.83615C630.753 48.8716 624.34 76.5058 622.417 84.7386C620.488 92.9978 609.815 138.608 590.399 221.57C583.296 251.459 578.827 270.344 576.991 278.225C576.116 281.974 572.9 295.778 568.901 312.978C568.852 313.188 568.647 313.327 568.433 313.291V313.291ZM310.398 468.294C310.351 468.514 310.133 468.652 309.915 468.601L221.243 447.855C217.62 447.002 206.89 444.55 189.054 440.499C134.918 428.038 105.263 421.18 100.09 419.927C92.3334 418.031 33.4276 404.33 28.3689 403.145C25.0388 402.36 16.114 400.237 1.59438 396.775C1.2819 396.7 1.10251 396.366 1.21783 396.067V396.067C1.31286 395.819 1.58067 395.681 1.83858 395.741C48.8728 406.644 76.5062 413.057 84.739 414.98L221.571 446.994C251.46 454.097 270.345 458.566 278.226 460.401L310.097 467.821C310.309 467.871 310.443 468.081 310.398 468.294V468.294ZM770.274 576.091C770.274 576.09 770.274 576.089 770.275 576.088L770.336 575.93C770.501 575.504 770.942 575.261 771.388 575.364C799.749 581.973 848.616 593.361 857.853 595.519L991.024 626.676L1059.55 642.711C1059.79 642.767 1059.92 643.017 1059.84 643.242V643.242C1059.76 643.428 1059.6 643.54 1059.41 643.494C1054.85 642.418 1000.15 629.506 993.419 627.934C988.734 626.84 978.425 624.449 962.491 620.761C905.893 607.712 875.183 600.625 870.361 599.499C863.116 597.795 832.005 590.439 829.078 589.838C826.84 589.382 790.683 580.89 770.281 576.1C770.277 576.099 770.274 576.095 770.274 576.091V576.091Z" fill="#D6001C" stroke="#D6001C" stroke-width="2"/>
</svg>
