<svg width="213" height="65" viewBox="0 0 213 65" fill="none" xmlns="http://www.w3.org/2000/svg">
<path d="M204.228 64.7768H8.07959C3.76432 64.7768 0.233643 61.1838 0.233643 56.7924V8.88637C0.233643 4.49498 3.76432 0.902023 8.07959 0.902023H204.228C208.544 0.902023 212.074 4.49498 212.074 8.88637V56.7924C212.074 61.1838 208.544 64.7768 204.228 64.7768Z" fill="black"/>
<path d="M204.228 0.902023H8.07959C3.76432 0.902023 0.233643 4.49498 0.233643 8.88637V56.7924C0.233643 61.1838 3.76432 64.7768 8.07959 64.7768H204.228C208.544 64.7768 212.074 61.1838 212.074 56.7924V8.88637C212.074 4.49498 208.544 0.902023 204.228 0.902023ZM204.228 2.17888C207.863 2.17888 210.819 5.18802 210.819 8.88637V56.7924C210.819 60.4908 207.863 63.4999 204.228 63.4999H8.07959C4.44532 63.4999 1.48961 60.4908 1.48961 56.7924V8.88637C1.48961 5.18802 4.44532 2.17888 8.07959 2.17888H204.228Z" fill="#A2A2A1"/>
<path d="M32.7436 31.9201L16.0372 49.9648C16.0378 49.9685 16.0391 49.9716 16.0397 49.9754C16.5521 51.9346 18.3106 53.3774 20.3978 53.3774C21.2322 53.3774 22.0155 53.1479 22.6873 52.7449L22.7406 52.7131L41.5458 41.6704L32.7436 31.9201Z" fill="#D6001C"/>
<path d="M49.6448 28.8474L49.6288 28.8362L41.5101 24.0467L32.3635 32.3294L41.542 41.6685L49.6178 36.9266C51.0337 36.1488 51.9948 34.6298 51.9948 32.8782C51.9948 31.1392 51.0466 29.6278 49.6448 28.8474Z" fill="#F6B60B"/>
<path d="M16.0358 15.7165C15.9354 16.0934 15.8826 16.4881 15.8826 16.898V48.7837C15.8826 49.1928 15.9347 49.5889 16.0364 49.9644L33.3177 32.3814L16.0358 15.7165Z" fill="#5778C5"/>
<path d="M32.8662 32.8406L41.5133 24.0435L22.7295 12.9609C22.0468 12.5448 21.2499 12.3046 20.3972 12.3046C18.3101 12.3046 16.5491 13.7499 16.0366 15.7117C16.036 15.7136 16.036 15.7149 16.036 15.7166L32.8662 32.8406Z" fill="#3BAD49"/>
<path d="M168.399 49.2154H171.327V29.2521H168.399V49.2154ZM194.773 36.4433L191.416 45.0984H191.316L187.832 36.4433H184.678L189.902 48.5404L186.923 55.2693H189.979L198.029 36.4433H194.773ZM178.167 46.948C177.207 46.948 175.87 46.4601 175.87 45.2525C175.87 43.7117 177.536 43.121 178.974 43.121C180.262 43.121 180.866 43.4035 181.649 43.7891C181.422 45.638 179.857 46.948 178.167 46.948ZM178.52 36.0066C176.4 36.0066 174.205 36.9572 173.296 39.0632L175.895 40.1673C176.45 39.0632 177.485 38.7033 178.57 38.7033C180.085 38.7033 181.624 39.6284 181.649 41.2721V41.4773C181.119 41.1691 179.984 40.7069 178.596 40.7069C175.795 40.7069 172.942 42.2732 172.942 45.2013C172.942 47.8724 175.239 49.5934 177.813 49.5934C179.782 49.5934 180.866 48.6945 181.549 47.6417H181.649V49.1824H184.475V41.5284C184.475 37.9847 181.877 36.0066 178.52 36.0066ZM160.424 38.8735H156.259V32.0306H160.424C162.613 32.0306 163.856 33.875 163.856 35.452C163.856 36.9991 162.613 38.8735 160.424 38.8735ZM160.349 29.2521H153.333V49.2154H156.259V41.652H160.349C163.594 41.652 166.784 39.2609 166.784 35.452C166.784 31.6432 163.594 29.2521 160.349 29.2521ZM122.089 46.9516C120.066 46.9516 118.373 45.2281 118.373 42.8608C118.373 40.4687 120.066 38.7189 122.089 38.7189C124.086 38.7189 125.654 40.4687 125.654 42.8608C125.654 45.2281 124.086 46.9516 122.089 46.9516ZM125.451 37.5612H125.35C124.693 36.7638 123.429 36.0435 121.836 36.0435C118.499 36.0435 115.44 39.0276 115.44 42.8608C115.44 46.6685 118.499 49.6271 121.836 49.6271C123.429 49.6271 124.693 48.9066 125.35 48.0838H125.451V49.0613C125.451 51.6601 124.086 53.0493 121.887 53.0493C120.092 53.0493 118.98 51.7368 118.524 50.6308L115.971 51.7112C116.704 53.5121 118.651 55.7247 121.887 55.7247C125.325 55.7247 128.232 53.6662 128.232 48.6496V36.4551H125.451V37.5612ZM130.255 49.2154H133.187V29.2515H130.255V49.2154ZM137.51 42.6294C137.435 40.0051 139.508 38.6677 140.999 38.6677C142.163 38.6677 143.148 39.259 143.476 40.1087L137.51 42.6294ZM146.612 40.3657C146.056 38.8473 144.361 36.0435 140.898 36.0435C137.46 36.0435 134.603 38.7962 134.603 42.8353C134.603 46.643 137.435 49.6271 141.226 49.6271C144.286 49.6271 146.056 47.7233 146.789 46.6172L144.513 45.0733C143.756 46.2056 142.718 46.9516 141.226 46.9516C139.735 46.9516 138.673 46.2568 137.991 44.8937L146.914 41.1373L146.612 40.3657ZM75.5126 38.1274V41.0087H82.2877C82.0855 42.6294 81.5546 43.8127 80.7455 44.6361C79.7599 45.6398 78.2176 46.7458 75.5126 46.7458C71.3411 46.7458 68.0801 43.3243 68.0801 39.0793C68.0801 34.8344 71.3411 31.4124 75.5126 31.4124C77.7627 31.4124 79.4055 32.3131 80.6192 33.4708L82.6163 31.4386C80.9227 29.7917 78.6724 28.5311 75.5126 28.5311C69.7989 28.5311 64.9956 33.265 64.9956 39.0793C64.9956 44.8937 69.7989 49.6271 75.5126 49.6271C78.5971 49.6271 80.9227 48.5985 82.7427 46.6685C84.6135 44.7647 85.1952 42.0892 85.1952 39.9284C85.1952 39.259 85.1448 38.6421 85.0431 38.1274H75.5126ZM92.8979 46.9516C90.875 46.9516 89.1305 45.2536 89.1305 42.8353C89.1305 40.3912 90.875 38.7189 92.8979 38.7189C94.92 38.7189 96.6645 40.3912 96.6645 42.8353C96.6645 45.2536 94.92 46.9516 92.8979 46.9516ZM92.8979 36.0435C89.2065 36.0435 86.1979 38.8991 86.1979 42.8353C86.1979 46.7458 89.2065 49.6271 92.8979 49.6271C96.5886 49.6271 99.5971 46.7458 99.5971 42.8353C99.5971 38.8991 96.5886 36.0435 92.8979 36.0435ZM107.512 46.9516C105.49 46.9516 103.746 45.2536 103.746 42.8353C103.746 40.3912 105.49 38.7189 107.512 38.7189C109.535 38.7189 111.279 40.3912 111.279 42.8353C111.279 45.2536 109.535 46.9516 107.512 46.9516ZM107.512 36.0435C103.821 36.0435 100.813 38.8991 100.813 42.8353C100.813 46.7458 103.821 49.6271 107.512 49.6271C111.203 49.6271 114.212 46.7458 114.212 42.8353C114.212 38.8991 111.203 36.0435 107.512 36.0435Z" fill="white"/>
<path d="M71.0792 17.0108C71.0792 17.8367 70.9203 18.5271 70.6027 19.0821C70.2884 19.6338 69.832 20.0501 69.2335 20.3309C68.635 20.6085 67.9145 20.7472 67.0719 20.7472H64.9956V13.4149H67.2976C68.0666 13.4149 68.7337 13.5519 69.2987 13.8261C69.8638 14.0969 70.3018 14.4998 70.6127 15.0348C70.9237 15.5664 71.0792 16.2251 71.0792 17.0108ZM69.4642 17.0509C69.4642 16.5093 69.384 16.0646 69.2235 15.7169C69.0664 15.3658 68.8323 15.1067 68.5214 14.9395C68.2138 14.7723 67.8326 14.6887 67.3779 14.6887H66.5503V19.4633H67.2174C67.9764 19.4633 68.5397 19.261 68.9075 18.8565C69.2787 18.4519 69.4642 17.85 69.4642 17.0509Z" fill="white"/>
<path d="M74.1365 15.1401V20.7472H72.6068V15.1401H74.1365ZM73.3742 12.9434C73.6015 12.9434 73.7971 12.9969 73.9609 13.1039C74.1248 13.2076 74.2067 13.4032 74.2067 13.6907C74.2067 13.9749 74.1248 14.1722 73.9609 14.2825C73.7971 14.3895 73.6015 14.443 73.3742 14.443C73.1435 14.443 72.9462 14.3895 72.7823 14.2825C72.6219 14.1722 72.5416 13.9749 72.5416 13.6907C72.5416 13.4032 72.6219 13.2076 72.7823 13.1039C72.9462 12.9969 73.1435 12.9434 73.3742 12.9434Z" fill="white"/>
<path d="M79.7867 19.0821C79.7867 19.4633 79.6964 19.786 79.5159 20.0501C79.3387 20.3109 79.0729 20.5098 78.7185 20.6469C78.364 20.7807 77.9227 20.8475 77.3944 20.8475C77.0032 20.8475 76.6672 20.8224 76.3863 20.7723C76.1088 20.7221 75.828 20.6386 75.5438 20.5215V19.2577C75.848 19.3948 76.174 19.5084 76.5218 19.5987C76.8728 19.6856 77.1804 19.7291 77.4446 19.7291C77.7421 19.7291 77.9545 19.6856 78.0815 19.5987C78.2119 19.5084 78.2771 19.3914 78.2771 19.2476C78.2771 19.154 78.2504 19.0704 78.1969 18.9969C78.1467 18.92 78.0364 18.8347 77.8659 18.7411C77.6953 18.6441 77.4278 18.5188 77.0634 18.365C76.7123 18.2178 76.4231 18.0691 76.1958 17.9186C75.9717 17.7681 75.8046 17.5909 75.6942 17.387C75.5872 17.1797 75.5337 16.9172 75.5337 16.5996C75.5337 16.0813 75.7344 15.6918 76.1356 15.431C76.5401 15.1669 77.0801 15.0348 77.7555 15.0348C78.1032 15.0348 78.4342 15.0699 78.7485 15.1401C79.0662 15.2103 79.3922 15.3223 79.7265 15.4761L79.2651 16.5795C78.9876 16.4591 78.7251 16.3605 78.4777 16.2836C78.2336 16.2067 77.9845 16.1683 77.7304 16.1683C77.5064 16.1683 77.3376 16.1983 77.2239 16.2585C77.1102 16.3187 77.0534 16.4107 77.0534 16.5344C77.0534 16.6246 77.0818 16.7049 77.1386 16.7751C77.1988 16.8453 77.3125 16.9239 77.4797 17.0108C77.6502 17.0944 77.8993 17.2031 78.227 17.3368C78.5446 17.4672 78.8204 17.6043 79.0545 17.7481C79.2885 17.8885 79.4691 18.064 79.5961 18.2747C79.7232 18.482 79.7867 18.7511 79.7867 19.0821Z" fill="white"/>
<path d="M84.2283 15.0348C84.8602 15.0348 85.3701 15.2805 85.7579 15.772C86.1491 16.2635 86.3447 16.9841 86.3447 17.9336C86.3447 18.5689 86.2528 19.1039 86.0689 19.5385C85.885 19.9698 85.6309 20.2958 85.3065 20.5165C84.9822 20.7372 84.6094 20.8475 84.1881 20.8475C83.9173 20.8475 83.6849 20.8141 83.491 20.7472C83.2971 20.677 83.1316 20.5884 82.9945 20.4814C82.8574 20.3711 82.7387 20.254 82.6384 20.1303H82.5582C82.5849 20.2641 82.605 20.4012 82.6183 20.5416C82.6317 20.682 82.6384 20.8191 82.6384 20.9528V23.2147H81.1087V15.1401H82.3525L82.5682 15.8673H82.6384C82.7387 15.7169 82.8607 15.5781 83.0045 15.4511C83.1483 15.324 83.3205 15.2237 83.5211 15.1501C83.725 15.0732 83.9608 15.0348 84.2283 15.0348ZM83.7368 16.2585C83.4693 16.2585 83.257 16.3137 83.0998 16.424C82.9427 16.5344 82.8273 16.6999 82.7538 16.9205C82.6835 17.1412 82.6451 17.4204 82.6384 17.7581V17.9236C82.6384 18.2847 82.6718 18.5906 82.7387 18.8414C82.8089 19.0922 82.9243 19.2828 83.0848 19.4131C83.2486 19.5435 83.4726 19.6087 83.7568 19.6087C83.9909 19.6087 84.1831 19.5435 84.3336 19.4131C84.484 19.2828 84.596 19.0922 84.6696 18.8414C84.7465 18.5873 84.785 18.278 84.785 17.9136C84.785 17.3652 84.6997 16.9523 84.5292 16.6748C84.3587 16.3973 84.0945 16.2585 83.7368 16.2585Z" fill="white"/>
<path d="M92.8325 17.9336C92.8325 18.4017 92.769 18.8163 92.6419 19.1774C92.5182 19.5385 92.336 19.8445 92.0952 20.0952C91.8578 20.3427 91.5703 20.5299 91.2326 20.6569C90.8983 20.784 90.5204 20.8475 90.0992 20.8475C89.7046 20.8475 89.3418 20.784 89.0108 20.6569C88.6832 20.5299 88.3973 20.3427 88.1532 20.0952C87.9125 19.8445 87.7252 19.5385 87.5915 19.1774C87.4611 18.8163 87.3959 18.4017 87.3959 17.9336C87.3959 17.3117 87.5062 16.7851 87.7269 16.3538C87.9476 15.9225 88.2619 15.5948 88.6698 15.3708C89.0777 15.1468 89.5642 15.0348 90.1292 15.0348C90.6542 15.0348 91.1189 15.1468 91.5235 15.3708C91.9314 15.5948 92.2507 15.9225 92.4814 16.3538C92.7155 16.7851 92.8325 17.3117 92.8325 17.9336ZM88.9557 17.9336C88.9557 18.3014 88.9958 18.6107 89.076 18.8615C89.1563 19.1122 89.2817 19.3011 89.4522 19.4282C89.6227 19.5552 89.845 19.6188 90.1192 19.6188C90.39 19.6188 90.609 19.5552 90.7762 19.4282C90.9467 19.3011 91.0704 19.1122 91.1474 18.8615C91.2276 18.6107 91.2677 18.3014 91.2677 17.9336C91.2677 17.5625 91.2276 17.2549 91.1474 17.0108C91.0704 16.7634 90.9467 16.5778 90.7762 16.4541C90.6057 16.3304 90.3834 16.2686 90.1092 16.2686C89.7046 16.2686 89.4104 16.4073 89.2265 16.6848C89.0459 16.9623 88.9557 17.3786 88.9557 17.9336Z" fill="white"/>
<path d="M97.4094 15.0348C98.0079 15.0348 98.4894 15.1986 98.8539 15.5263C99.2183 15.8506 99.4005 16.3722 99.4005 17.0911V20.7472H97.8709V17.4722C97.8709 17.071 97.7973 16.7684 97.6502 16.5645C97.5064 16.3605 97.279 16.2585 96.9681 16.2585C96.5 16.2585 96.1807 16.4173 96.0102 16.735C95.8397 17.0526 95.7544 17.5107 95.7544 18.1092V20.7472H94.2247V15.1401H95.3933L95.5989 15.8573H95.6842C95.8046 15.6634 95.9533 15.5062 96.1305 15.3859C96.3111 15.2655 96.51 15.1769 96.7274 15.1201C96.948 15.0632 97.1754 15.0348 97.4094 15.0348Z" fill="white"/>
<path d="M102.633 15.1401V20.7472H101.104V15.1401H102.633ZM101.871 12.9434C102.098 12.9434 102.294 12.9969 102.458 13.1039C102.622 13.2076 102.704 13.4032 102.704 13.6907C102.704 13.9749 102.622 14.1722 102.458 14.2825C102.294 14.3895 102.098 14.443 101.871 14.443C101.64 14.443 101.443 14.3895 101.279 14.2825C101.119 14.1722 101.039 13.9749 101.039 13.6907C101.039 13.4032 101.119 13.2076 101.279 13.1039C101.443 12.9969 101.64 12.9434 101.871 12.9434Z" fill="white"/>
<path d="M105.901 12.9434V14.759C105.901 14.9696 105.895 15.1786 105.881 15.3859C105.871 15.5932 105.858 15.7537 105.841 15.8673H105.901C106.048 15.6366 106.249 15.441 106.503 15.2805C106.757 15.1167 107.087 15.0348 107.491 15.0348C108.12 15.0348 108.63 15.2805 109.021 15.772C109.412 16.2635 109.608 16.9841 109.608 17.9336C109.608 18.5723 109.517 19.1089 109.337 19.5435C109.156 19.9749 108.904 20.3009 108.58 20.5215C108.255 20.7389 107.879 20.8475 107.451 20.8475C107.04 20.8475 106.715 20.774 106.478 20.6269C106.241 20.4797 106.048 20.3142 105.901 20.1303H105.796L105.54 20.7472H104.372V12.9434H105.901ZM107 16.2585C106.732 16.2585 106.52 16.3137 106.363 16.424C106.206 16.5344 106.09 16.6999 106.017 16.9205C105.946 17.1412 105.908 17.4204 105.901 17.7581V17.9236C105.901 18.4686 105.982 18.8865 106.142 19.1774C106.303 19.465 106.595 19.6087 107.02 19.6087C107.334 19.6087 107.583 19.4633 107.767 19.1724C107.954 18.8815 108.048 18.4619 108.048 17.9136C108.048 17.3652 107.954 16.9523 107.767 16.6748C107.58 16.3973 107.324 16.2585 107 16.2585Z" fill="white"/>
<path d="M112.53 20.7472H111V12.9434H112.53V20.7472Z" fill="white"/>
<path d="M116.58 15.0348C117.098 15.0348 117.545 15.1351 117.919 15.3357C118.293 15.533 118.583 15.8205 118.787 16.1983C118.991 16.5762 119.093 17.0376 119.093 17.5826V18.3248H115.477C115.493 18.7561 115.622 19.0955 115.863 19.3429C116.107 19.587 116.444 19.7091 116.876 19.7091C117.234 19.7091 117.561 19.6723 117.859 19.5987C118.156 19.5252 118.462 19.4148 118.777 19.2677V20.4513C118.499 20.5884 118.208 20.6887 117.904 20.7522C117.603 20.8158 117.237 20.8475 116.806 20.8475C116.244 20.8475 115.746 20.7439 115.311 20.5366C114.88 20.3293 114.54 20.0133 114.293 19.5887C114.049 19.1641 113.927 18.6291 113.927 17.9838C113.927 17.3285 114.037 16.7835 114.258 16.3488C114.482 15.9108 114.793 15.5831 115.191 15.3658C115.589 15.1451 116.052 15.0348 116.58 15.0348ZM116.59 16.1231C116.292 16.1231 116.045 16.2184 115.848 16.409C115.654 16.5996 115.542 16.8988 115.512 17.3067H117.658C117.655 17.0794 117.613 16.8771 117.533 16.6999C117.456 16.5227 117.339 16.3822 117.182 16.2786C117.028 16.1749 116.831 16.1231 116.59 16.1231Z" fill="white"/>
<path d="M127.173 19.0821C127.173 19.4633 127.083 19.786 126.902 20.0501C126.725 20.3109 126.459 20.5098 126.105 20.6469C125.751 20.7807 125.309 20.8475 124.781 20.8475C124.39 20.8475 124.054 20.8224 123.773 20.7723C123.495 20.7221 123.214 20.6386 122.93 20.5215V19.2577C123.235 19.3948 123.561 19.5084 123.908 19.5987C124.259 19.6856 124.567 19.7291 124.831 19.7291C125.129 19.7291 125.341 19.6856 125.468 19.5987C125.598 19.5084 125.664 19.3914 125.664 19.2476C125.664 19.154 125.637 19.0704 125.583 18.9969C125.533 18.92 125.423 18.8347 125.252 18.7411C125.082 18.6441 124.814 18.5188 124.45 18.365C124.099 18.2178 123.81 18.0691 123.582 17.9186C123.358 17.7681 123.191 17.5909 123.081 17.387C122.974 17.1797 122.92 16.9172 122.92 16.5996C122.92 16.0813 123.121 15.6918 123.522 15.431C123.927 15.1669 124.467 15.0348 125.142 15.0348C125.49 15.0348 125.821 15.0699 126.135 15.1401C126.453 15.2103 126.779 15.3223 127.113 15.4761L126.652 16.5795C126.374 16.4591 126.112 16.3605 125.864 16.2836C125.62 16.2067 125.371 16.1683 125.117 16.1683C124.893 16.1683 124.724 16.1983 124.61 16.2585C124.497 16.3187 124.44 16.4107 124.44 16.5344C124.44 16.6246 124.468 16.7049 124.525 16.7751C124.585 16.8453 124.699 16.9239 124.866 17.0108C125.037 17.0944 125.286 17.2031 125.613 17.3368C125.931 17.4672 126.207 17.6043 126.441 17.7481C126.675 17.8885 126.856 18.064 126.983 18.2747C127.11 18.482 127.173 18.7511 127.173 19.0821Z" fill="white"/>
<path d="M133.641 15.1401V20.7472H132.467L132.262 20.03H132.181C132.061 20.2206 131.911 20.3761 131.73 20.4965C131.55 20.6168 131.351 20.7054 131.133 20.7623C130.916 20.8191 130.69 20.8475 130.456 20.8475C130.055 20.8475 129.706 20.7773 129.408 20.6369C129.11 20.4931 128.878 20.2708 128.711 19.9698C128.547 19.6689 128.465 19.2777 128.465 18.7963V15.1401H129.995V18.4151C129.995 18.8163 130.067 19.1189 130.21 19.3229C130.354 19.5268 130.583 19.6288 130.898 19.6288C131.209 19.6288 131.453 19.5586 131.63 19.4182C131.807 19.2744 131.931 19.0654 132.001 18.7913C132.074 18.5137 132.111 18.176 132.111 17.7782V15.1401H133.641Z" fill="white"/>
<path d="M138.504 15.0348C138.581 15.0348 138.669 15.0398 138.77 15.0498C138.873 15.0565 138.957 15.0666 139.02 15.0799L138.905 16.5143C138.855 16.4976 138.783 16.4859 138.689 16.4792C138.599 16.4692 138.52 16.4642 138.454 16.4642C138.256 16.4642 138.064 16.4892 137.877 16.5394C137.693 16.5895 137.527 16.6715 137.38 16.7851C137.233 16.8955 137.116 17.0426 137.029 17.2265C136.946 17.407 136.904 17.6294 136.904 17.8935V20.7472H135.374V15.1401H136.533L136.758 16.083H136.834C136.944 15.8924 137.081 15.7185 137.245 15.5614C137.412 15.4009 137.601 15.2739 137.812 15.1802C138.026 15.0833 138.256 15.0348 138.504 15.0348Z" fill="white"/>
</svg>
