<svg width="29" height="21" viewBox="0 0 29 21" fill="none" xmlns="http://www.w3.org/2000/svg">
<path d="M0 18.8333C0 19.7538 0.746193 20.5 1.66667 20.5H27.3333C28.2538 20.5 29 19.7538 29 18.8333C29 17.9129 28.2538 17.1667 27.3333 17.1667H1.66667C0.746194 17.1667 0 17.9129 0 18.8333ZM0 10.5C0 11.4205 0.746192 12.1667 1.66667 12.1667H27.3333C28.2538 12.1667 29 11.4205 29 10.5C29 9.57952 28.2538 8.83333 27.3333 8.83333H1.66667C0.746191 8.83333 0 9.57952 0 10.5ZM1.66667 0.5C0.746194 0.5 0 1.24619 0 2.16667C0 3.08714 0.746192 3.83333 1.66667 3.83333H27.3333C28.2538 3.83333 29 3.08714 29 2.16667C29 1.24619 28.2538 0.5 27.3333 0.5H1.66667Z" fill="black"/>
</svg>
