<svg width="11" height="10" viewBox="0 0 11 10" fill="none" xmlns="http://www.w3.org/2000/svg">
<path d="M3.81684 0.323293C3.81589 0.111172 4.1599 0.00912041 4.27303 0.188634C4.80498 1.03002 5.69968 2.26025 6.67138 2.79228C7.64297 3.32238 9.1635 3.41229 10.1584 3.40502C10.3705 3.40406 10.4707 3.74817 10.2911 3.8613C9.44976 4.39325 8.22144 5.28786 7.68942 6.25955C7.1574 7.23124 7.06941 8.75168 7.07668 9.74658C7.07763 9.9587 6.7316 10.0589 6.6204 9.87931C6.08845 9.03793 5.19384 7.80962 4.22022 7.27769C3.24853 6.74567 1.7281 6.65768 0.735123 6.66485C0.523002 6.66581 0.42085 6.31987 0.60046 6.20867C1.44184 5.67672 2.67208 4.78201 3.20401 3.80839C3.73411 2.8368 3.82402 1.31627 3.81684 0.323293Z" fill="white"/>
</svg>
